<svg xmlns="http://www.w3.org/2000/svg" xmlns:xlink="http://www.w3.org/1999/xlink" viewBox="0 0 141.74 135"><defs><style>.cls-1{mask:url(#mask);}.cls-2,.cls-7{mix-blend-mode:multiply;}.cls-2{fill:url(#radial-gradient);}.cls-3{fill:none;}.cls-4{isolation:isolate;}.cls-5{fill:#fff;}.cls-6{mask:url(#mask-2);}.cls-7{fill:url(#radial-gradient-2);}.cls-8{clip-path:url(#clip-path);}.cls-9{opacity:0.9;}.cls-10{opacity:0.59;}.cls-10,.cls-101,.cls-105,.cls-107,.cls-128,.cls-13,.cls-146,.cls-16,.cls-169,.cls-185,.cls-19,.cls-199,.cls-208,.cls-21,.cls-214,.cls-222,.cls-24,.cls-27,.cls-30,.cls-33,.cls-36,.cls-39,.cls-46,.cls-49,.cls-54,.cls-57,.cls-60,.cls-65,.cls-68,.cls-71,.cls-75,.cls-80,.cls-85,.cls-88,.cls-91,.cls-98{mix-blend-mode:exclusion;}.cls-11{fill:url(#radial-gradient-3);}.cls-12{fill:url(#radial-gradient-4);}.cls-13{opacity:0.35;}.cls-14{fill:url(#radial-gradient-5);}.cls-15{fill:url(#radial-gradient-6);}.cls-16{opacity:0.52;}.cls-17{fill:url(#radial-gradient-7);}.cls-18{fill:url(#radial-gradient-8);}.cls-19{opacity:0.97;}.cls-20{fill:url(#radial-gradient-9);}.cls-21{opacity:0.87;}.cls-22{fill:url(#radial-gradient-10);}.cls-23{fill:url(#radial-gradient-11);}.cls-24{opacity:0.51;}.cls-25{fill:url(#radial-gradient-12);}.cls-26{fill:url(#radial-gradient-13);}.cls-27{opacity:0.63;}.cls-28{fill:url(#radial-gradient-14);}.cls-29{fill:url(#radial-gradient-15);}.cls-30{opacity:0.23;}.cls-31{fill:url(#radial-gradient-16);}.cls-32{fill:url(#radial-gradient-17);}.cls-33{opacity:0.4;}.cls-34{fill:url(#radial-gradient-18);}.cls-35{fill:url(#radial-gradient-19);}.cls-36{opacity:0.2;}.cls-37{fill:url(#radial-gradient-20);}.cls-38{fill:url(#radial-gradient-21);}.cls-39{opacity:0.99;}.cls-40{fill:url(#radial-gradient-22);}.cls-41{fill:url(#radial-gradient-23);}.cls-42{fill:url(#radial-gradient-24);}.cls-43{fill:url(#radial-gradient-25);}.cls-44{fill:url(#radial-gradient-26);}.cls-45{fill:url(#radial-gradient-27);}.cls-46{opacity:0.53;}.cls-47{fill:url(#radial-gradient-28);}.cls-48{fill:url(#radial-gradient-29);}.cls-49{opacity:0.39;}.cls-50{fill:url(#radial-gradient-30);}.cls-51{fill:url(#radial-gradient-31);}.cls-52{fill:url(#radial-gradient-32);}.cls-53{fill:url(#radial-gradient-33);}.cls-54{opacity:0.86;}.cls-55{fill:url(#radial-gradient-34);}.cls-56{fill:url(#radial-gradient-35);}.cls-57{opacity:0.66;}.cls-58{fill:url(#radial-gradient-36);}.cls-59{fill:url(#radial-gradient-37);}.cls-60{opacity:0.43;}.cls-61{fill:url(#radial-gradient-38);}.cls-62{fill:url(#radial-gradient-39);}.cls-63{fill:url(#radial-gradient-40);}.cls-64{fill:url(#radial-gradient-41);}.cls-65{opacity:0.74;}.cls-66{fill:url(#radial-gradient-42);}.cls-67{fill:url(#radial-gradient-43);}.cls-68{opacity:0.82;}.cls-69{fill:url(#radial-gradient-44);}.cls-70{fill:url(#radial-gradient-45);}.cls-71{opacity:0.25;}.cls-72{fill:url(#radial-gradient-46);}.cls-73{fill:url(#radial-gradient-47);}.cls-74{fill:url(#radial-gradient-48);}.cls-75{opacity:0.88;}.cls-76{fill:url(#radial-gradient-49);}.cls-77{fill:url(#radial-gradient-50);}.cls-78{fill:url(#radial-gradient-51);}.cls-79{fill:url(#radial-gradient-52);}.cls-80{opacity:0.15;}.cls-81{fill:url(#radial-gradient-53);}.cls-82{fill:url(#radial-gradient-54);}.cls-83{fill:url(#radial-gradient-55);}.cls-84{fill:url(#radial-gradient-56);}.cls-85{opacity:0.83;}.cls-86{fill:url(#radial-gradient-57);}.cls-87{fill:url(#radial-gradient-58);}.cls-88{opacity:0.13;}.cls-89{fill:url(#radial-gradient-59);}.cls-90{fill:url(#radial-gradient-60);}.cls-91{opacity:0;}.cls-92{fill:url(#radial-gradient-61);}.cls-93{fill:url(#radial-gradient-62);}.cls-114,.cls-196,.cls-244,.cls-94{mix-blend-mode:color;}.cls-94{fill:url(#linear-gradient);}.cls-95{clip-path:url(#clip-path-2);}.cls-96{fill:url(#radial-gradient-63);}.cls-97{fill:url(#radial-gradient-64);}.cls-98{opacity:0.07;}.cls-99{fill:url(#radial-gradient-65);}.cls-100{fill:url(#radial-gradient-66);}.cls-101{opacity:0.73;}.cls-102{fill:url(#radial-gradient-67);}.cls-103{fill:url(#radial-gradient-68);}.cls-104{fill:url(#radial-gradient-69);}.cls-105{opacity:0.7;}.cls-106{fill:url(#radial-gradient-70);}.cls-107{opacity:0.71;}.cls-108{fill:url(#radial-gradient-71);}.cls-109{fill:url(#radial-gradient-72);}.cls-110{fill:url(#radial-gradient-73);}.cls-111{fill:url(#radial-gradient-74);}.cls-112{fill:url(#radial-gradient-75);}.cls-113{fill:url(#radial-gradient-76);}.cls-114{fill:url(#linear-gradient-2);}.cls-115{clip-path:url(#clip-path-3);}.cls-116{fill:url(#radial-gradient-77);}.cls-117{fill:url(#radial-gradient-78);}.cls-118{fill:url(#radial-gradient-79);}.cls-119{fill:url(#radial-gradient-80);}.cls-120{fill:url(#radial-gradient-81);}.cls-121{fill:url(#radial-gradient-82);}.cls-122{fill:url(#radial-gradient-83);}.cls-123{fill:url(#radial-gradient-84);}.cls-124{fill:url(#radial-gradient-85);}.cls-125{fill:url(#radial-gradient-86);}.cls-126{fill:url(#radial-gradient-87);}.cls-127{fill:url(#radial-gradient-88);}.cls-128{opacity:0.38;}.cls-129{fill:url(#radial-gradient-89);}.cls-130{fill:url(#radial-gradient-90);}.cls-131{fill:url(#radial-gradient-91);}.cls-132{fill:url(#radial-gradient-92);}.cls-133{fill:url(#radial-gradient-93);}.cls-134{fill:url(#radial-gradient-94);}.cls-135{fill:url(#radial-gradient-95);}.cls-136{fill:url(#radial-gradient-96);}.cls-137{fill:url(#radial-gradient-97);}.cls-138{fill:url(#radial-gradient-98);}.cls-139{fill:url(#radial-gradient-99);}.cls-140{fill:url(#radial-gradient-100);}.cls-141{fill:url(#radial-gradient-101);}.cls-142{fill:url(#radial-gradient-102);}.cls-143{fill:url(#radial-gradient-103);}.cls-144{fill:url(#radial-gradient-104);}.cls-145{fill:url(#radial-gradient-105);}.cls-146{opacity:0.06;}.cls-147{fill:url(#radial-gradient-106);}.cls-148{fill:url(#radial-gradient-107);}.cls-149{fill:url(#radial-gradient-108);}.cls-150{fill:url(#radial-gradient-109);}.cls-151{fill:url(#radial-gradient-110);}.cls-152{fill:url(#radial-gradient-111);}.cls-153{fill:url(#radial-gradient-112);}.cls-154{fill:url(#radial-gradient-113);}.cls-155{fill:url(#radial-gradient-114);}.cls-156{fill:url(#radial-gradient-115);}.cls-157{fill:url(#radial-gradient-116);}.cls-158{fill:url(#radial-gradient-117);}.cls-159{fill:url(#radial-gradient-118);}.cls-160{fill:url(#radial-gradient-119);}.cls-161{fill:url(#radial-gradient-120);}.cls-162{fill:url(#radial-gradient-121);}.cls-163{fill:url(#radial-gradient-122);}.cls-164{fill:url(#radial-gradient-123);}.cls-165{fill:url(#radial-gradient-124);}.cls-166{fill:url(#radial-gradient-125);}.cls-167{fill:url(#radial-gradient-126);}.cls-168{fill:url(#radial-gradient-127);}.cls-169{opacity:0.89;}.cls-170{fill:url(#radial-gradient-128);}.cls-171{fill:url(#radial-gradient-129);}.cls-172{fill:url(#radial-gradient-130);}.cls-173{fill:url(#radial-gradient-131);}.cls-174{fill:url(#radial-gradient-132);}.cls-175{fill:url(#radial-gradient-133);}.cls-176{fill:url(#radial-gradient-134);}.cls-177{fill:url(#radial-gradient-135);}.cls-178{fill:url(#radial-gradient-136);}.cls-179{fill:url(#radial-gradient-137);}.cls-180{fill:url(#radial-gradient-138);}.cls-181{fill:url(#radial-gradient-139);}.cls-182{fill:url(#radial-gradient-140);}.cls-183{fill:url(#radial-gradient-141);}.cls-184{fill:url(#radial-gradient-142);}.cls-185{opacity:0.22;}.cls-186{fill:url(#radial-gradient-143);}.cls-187{fill:url(#radial-gradient-144);}.cls-188{fill:url(#radial-gradient-145);}.cls-189{fill:url(#radial-gradient-146);}.cls-190{fill:url(#radial-gradient-147);}.cls-191{fill:url(#radial-gradient-148);}.cls-192{fill:url(#radial-gradient-149);}.cls-193{fill:url(#radial-gradient-150);}.cls-194{fill:url(#radial-gradient-151);}.cls-195{fill:url(#radial-gradient-152);}.cls-196{fill:url(#linear-gradient-3);}.cls-197{clip-path:url(#clip-path-4);}.cls-198{fill:url(#radial-gradient-153);}.cls-199{opacity:0.94;}.cls-200{fill:url(#radial-gradient-154);}.cls-201{fill:url(#radial-gradient-155);}.cls-202{fill:url(#radial-gradient-156);}.cls-203{fill:url(#radial-gradient-157);}.cls-204{fill:url(#radial-gradient-158);}.cls-205{fill:url(#radial-gradient-159);}.cls-206{fill:url(#radial-gradient-160);}.cls-207{fill:url(#radial-gradient-161);}.cls-208{opacity:0.61;}.cls-209{fill:url(#radial-gradient-162);}.cls-210{fill:url(#radial-gradient-163);}.cls-211{fill:url(#radial-gradient-164);}.cls-212{fill:url(#radial-gradient-165);}.cls-213{fill:url(#radial-gradient-166);}.cls-215{fill:url(#radial-gradient-167);}.cls-216{fill:url(#radial-gradient-168);}.cls-217{fill:url(#radial-gradient-169);}.cls-218{fill:url(#radial-gradient-170);}.cls-219{fill:url(#radial-gradient-171);}.cls-220{fill:url(#radial-gradient-172);}.cls-221{fill:url(#radial-gradient-173);}.cls-222{opacity:0.84;}.cls-223{fill:url(#radial-gradient-174);}.cls-224{fill:url(#radial-gradient-175);}.cls-225{fill:url(#radial-gradient-176);}.cls-226{fill:url(#radial-gradient-177);}.cls-227{fill:url(#radial-gradient-178);}.cls-228{fill:url(#radial-gradient-179);}.cls-229{fill:url(#radial-gradient-180);}.cls-230{fill:url(#radial-gradient-181);}.cls-231{fill:url(#radial-gradient-182);}.cls-232{fill:url(#radial-gradient-183);}.cls-233{fill:url(#radial-gradient-184);}.cls-234{fill:url(#radial-gradient-185);}.cls-235{fill:url(#radial-gradient-186);}.cls-236{fill:url(#radial-gradient-187);}.cls-237{fill:url(#radial-gradient-188);}.cls-238{fill:url(#radial-gradient-189);}.cls-239{fill:url(#radial-gradient-190);}.cls-240{fill:url(#radial-gradient-191);}.cls-241{fill:url(#radial-gradient-192);}.cls-242{fill:url(#radial-gradient-193);}.cls-243{fill:url(#radial-gradient-194);}.cls-244{fill:url(#linear-gradient-4);}.cls-245{filter:url(#luminosity-noclip-2);}.cls-246{filter:url(#luminosity-noclip);}</style><filter id="luminosity-noclip" x="171.63" y="-8417" width="110.13" height="32766" filterUnits="userSpaceOnUse" color-interpolation-filters="sRGB"><feFlood flood-color="#fff" result="bg"/><feBlend in="SourceGraphic" in2="bg"/></filter><mask id="mask" x="171.63" y="-8417" width="110.13" height="32766" maskUnits="userSpaceOnUse"><g class="cls-246"/></mask><radialGradient id="radial-gradient" cx="446.97" cy="-1530.37" r="218.72" gradientTransform="translate(114.24 322.36) scale(0.25 0.03)" gradientUnits="userSpaceOnUse"><stop offset="0" stop-color="#fff"/><stop offset="1"/></radialGradient><filter id="luminosity-noclip-2" x="171.63" y="272.69" width="110.13" height="12.42" filterUnits="userSpaceOnUse" color-interpolation-filters="sRGB"><feFlood flood-color="#fff" result="bg"/><feBlend in="SourceGraphic" in2="bg"/></filter><mask id="mask-2" x="15.66" y="115.19" width="110.13" height="12.42" maskUnits="userSpaceOnUse"><g class="cls-245"><g transform="translate(-155.97 -157.5)"><g class="cls-1"><path class="cls-2" d="M281.77,278.9c0,3.43-24.65,6.21-55.07,6.21s-55.07-2.78-55.07-6.21,24.66-6.21,55.07-6.21S281.77,275.47,281.77,278.9Z"/></g></g></g></mask><radialGradient id="radial-gradient-2" cx="446.97" cy="-1530.37" r="218.72" gradientTransform="translate(114.24 322.36) scale(0.25 0.03)" gradientUnits="userSpaceOnUse"><stop offset="0" stop-color="#bababa"/><stop offset="1" stop-color="#fff"/></radialGradient><clipPath id="clip-path" transform="translate(-155.97 -157.5)"><path class="cls-3" d="M212.05,207.31l.08-.32c0-.06.09-.13.27-.28a2.77,2.77,0,0,0,.55-.54l.77.64-.13-1.59.68-1-.52.12,1.28-1.52-1.79.42a2.12,2.12,0,0,0,.11-.21l.29-.72-.15-.09a1.14,1.14,0,0,0,.6-1l.25.06.22-.83a1.15,1.15,0,0,0-.16-1,.27.27,0,0,0-.07-.08l0-.06a1.25,1.25,0,0,0-.19-1.59l.19-.31.34.1v0l1.9,2.07-1.68-4-.05-.58-.21,0-.11-.27a1.33,1.33,0,0,0-.77-.72,1.24,1.24,0,0,0-.19-.36l-.25-.35-.42,0c-.73,0-1.69,0-2.51.05-.52,0-1,0-1.38,0a2.53,2.53,0,0,1-.41,0,4.1,4.1,0,0,0-1-.1h-.53c-.24,0-.46,0-.73,0h-.29a3,3,0,0,0-.74-.09,5.48,5.48,0,0,0-1.42.23,5,5,0,0,1-.95.17h-.08a4.46,4.46,0,0,1-1.2-.12l-.07,0a7.35,7.35,0,0,0-1.73-.18,21.14,21.14,0,0,0-4,.38h0l-.1-.35-.87.45h-1l.36,1a.7.7,0,0,0,0,.14.92.92,0,0,0,.25.44h0l-1.55.32,0-.22.83-.13-.14-.89a.9.9,0,0,0-.2-.47l.13-.74-1.19.14a4.56,4.56,0,0,1-.66,0l-1.23-3.5.26,3.45a2,2,0,0,0-1.83.83h-.2a1.43,1.43,0,0,0-.64.15l-.44.22,0,.49a1.24,1.24,0,0,0,.1.68,1.48,1.48,0,0,0-.28.28l0,0L187,196l0,0a1.14,1.14,0,0,0,.18-.25l.28-.54-.41-.46a1.14,1.14,0,0,0-.32-.26,1.16,1.16,0,0,0-.13-.62l-.21-.44-.49-.06a1.55,1.55,0,0,0-1.08.26l-.21-.26H184a1.08,1.08,0,0,0-.84.34l-.36.39.16.5v0a1.16,1.16,0,0,0,1.14,1l0,.11h0l-.13.35-2.07-.34.6.82v.79a.22.22,0,0,0,0,.08,1.46,1.46,0,0,0-.43-.32l-.44-.21a2.77,2.77,0,0,0-.16-.61l-.51-1.11a1.17,1.17,0,0,0,0-.32l-.06-.27.3-1-1.32.1a1.52,1.52,0,0,0-1.48,1.12l-.63-.49-.43.54H177l-.69,0-.14.54a1.51,1.51,0,0,0-.32.39l-.06.11,0,.11c0,.22-.2.35-.51.61l-.45.39.1.51a1,1,0,0,0,.75.81l.5.38.11-.11h0l0,.09h.13l.5.41.19.21a1.8,1.8,0,0,0,.21.19,1.35,1.35,0,0,0-.28,0,1.64,1.64,0,0,0-1.68-.3,1.09,1.09,0,0,0-.53.12l-.56.25,0,.61a6.26,6.26,0,0,1-.45,2.33l-.14.41-.28.9.39.1-1.54.88-.27.16-.15-.13-.57.6-.05,0a1.78,1.78,0,0,0-.43.3l-.16-.06,0,.07h0l-.17,0,0,0a1.72,1.72,0,0,0-1.5-.72h0a.73.73,0,0,1-.19-.11l-.4-.51-.61.22a1.11,1.11,0,0,1-.89-.09,3.84,3.84,0,0,0-1.21-.32,2.51,2.51,0,0,0-.39,0h0a1.65,1.65,0,0,0-.84-.47l-.21,0H164l-.08,0,0-.17-.51-.17a1.49,1.49,0,0,0-.36,0,1.2,1.2,0,0,0-1,.55l-.13.05-.27-.54-.83,1.12h0a2.08,2.08,0,0,0-.29.25l-.41,0-.13.8c0,.18-.05.33-.53.37l-.58,0-.19.55a1.52,1.52,0,0,0-.08.54l-.2.61.61.37c.15.1.28.18.38.26a1.37,1.37,0,0,0-.33.31,1.65,1.65,0,0,0-.94.77l-.17.29.06.32a1,1,0,0,0,.5.72,1.83,1.83,0,0,0,.14.28,1.45,1.45,0,0,0,1,.59,3.16,3.16,0,0,0-.91,1.11l-.5,1.08.22,0,0,.07a.93.93,0,0,0-.18.82l.05.21.15.17a1.17,1.17,0,0,0,.84.35l0,.37,1-.25a1.32,1.32,0,0,0,.16.25l.49.63-.05.2a1,1,0,0,0-.24.61l-1.4,1.59,1.65-.55.11.35.81-.39a1.09,1.09,0,0,0,.49-.16l.35-.22,0-.2a2.69,2.69,0,0,0,.8-.68,1.38,1.38,0,0,1,.2-.21,1,1,0,0,1,.15-.11,1.69,1.69,0,0,0,.7-.76l.69-.19a1.4,1.4,0,0,0,.63-.4l1.38.24-.07-.18.56-.09a1.46,1.46,0,0,1,.52.06,2.6,2.6,0,0,0,.89.08l.28.28.1.1.85.84.16-.3.56.43a2.05,2.05,0,0,1,.13.37l.07.26.2.18a2.1,2.1,0,0,0,.46.3,2.06,2.06,0,0,0,.08,1.28l.17.41.09,0-.05.31.46.32.11.06a.31.31,0,0,0,0,.1l-.39.92.5,0h0l0,.56.68.16.1.11.21.25a3,3,0,0,0,.21.86,1.24,1.24,0,0,0,0,.39,4.58,4.58,0,0,1-.06.64,5.57,5.57,0,0,0-.08,1.18,1.22,1.22,0,0,0,.06.3,1.37,1.37,0,0,0-.11.6,3,3,0,0,0,.35,1,1.52,1.52,0,0,1,.11.23l.29.78.12,0a2.62,2.62,0,0,0,.3.49,1.23,1.23,0,0,1,.15.24l.12.6.6.12c.5.1.6.29.63.35l.07.12a3.29,3.29,0,0,0,.83,1.57l.06.08a1,1,0,0,0,.21.79l.18.22.27.09.08,0-.09.74.63.16.21.14,1.42.72-.05-.66,0,0c.39.45.38.49.32.66l-.19.56.44.39a9.16,9.16,0,0,0,2.86,1.56l.63.27.59.25.36-.4a.28.28,0,0,1,.12.08l1,1.38.2-.61.09,0,.37.06.22-.12a.67.67,0,0,0,.09.21l-.19.12.64.64-1.83.52,3.23.59.48.45-.14.2.22-.13.71.67a1.29,1.29,0,0,0-.09.16,1.31,1.31,0,0,0-.56.72l-.28.06v.61l-.52.49.35.28v.63A1.82,1.82,0,0,0,190,246l.08.09a5,5,0,0,1,.49,1,9.66,9.66,0,0,0,.46,1,.75.75,0,0,0-.21,0l-.95.17.16.63a1,1,0,0,0,0,.23l0,.47,0,.5h.09l.13.59h.6a1,1,0,0,0,.33.05,1.24,1.24,0,0,0,.27,0l.37-.08.19-.32a1.22,1.22,0,0,0,.19-.63l.09-.07a3.18,3.18,0,0,0,.67.31l0,0a2.36,2.36,0,0,0,.44.36,4.91,4.91,0,0,0,0,.55,2.65,2.65,0,0,1,0,.45l0,0a2,2,0,0,0-.17.51,2.67,2.67,0,0,0,0,.56,1.7,1.7,0,0,1,0,.22,3.24,3.24,0,0,1-.15.57,4.34,4.34,0,0,0-.21.81,1.68,1.68,0,0,1-.09,1,3.44,3.44,0,0,0,0,.66c0,.12,0,.23,0,.31a3.7,3.7,0,0,1-.52,1.49c-.07.14-.14.28-.2.42l-.13.26,0,.16-.19-.18.13,1.51-.06.35,0,.29.14.26,0,0v.05a1.41,1.41,0,0,0,.06.87l.14.28c0,.39-.08.48-.11.51l-.5.39.21.61h0l-1.06,0,1,1.16a1.12,1.12,0,0,0,0,.95l-.12.48.32.23h-.21l.16,1.08a1,1,0,0,0,.79.92l.16.8.17-.7a1.31,1.31,0,0,0,1.15.52,1.61,1.61,0,0,0,.34,0l.17,0a2.3,2.3,0,0,0,.64.11,1.73,1.73,0,0,0,.32,0l1.58-.35-1.13-1.16a6.39,6.39,0,0,0-.78-.65l.8-.24-1-.78.47-.07v-.74l.09-.08a1.78,1.78,0,0,0,.68-1.33l0-.8-.18,0,.07-.09a2.28,2.28,0,0,0,.38-1.57h.56l.11-.39h0a1.54,1.54,0,0,0,.31-.8,2.89,2.89,0,0,0,.49-.13,2.53,2.53,0,0,1,.38-.09l.68-.06.11-.6,0,0a1.54,1.54,0,0,0,.41-1v-.05h.28l.21-.14a1.59,1.59,0,0,0,.32-.26l.87,1v-2.11a1.91,1.91,0,0,0,.71-1,1.93,1.93,0,0,1,.13-.32,1.91,1.91,0,0,1,.14-.21,1.85,1.85,0,0,0,.26-.37,1.45,1.45,0,0,0,.11-1s0,0,0-.07.15-.2.63-.43l.52-.26h.1a1.75,1.75,0,0,0,1.47-.83l.1-.19a5.23,5.23,0,0,1,.23-.49,5.42,5.42,0,0,0,.59-1.81,3.8,3.8,0,0,0,0-.67h.11l.19-.48a2.23,2.23,0,0,1,.41-.58,2.62,2.62,0,0,0,.72-2.8l-.22-.62-.69,0c-.14,0-.17,0-.42-.27a4,4,0,0,0-.55-.48l-.25-.16-.29,0h-.29a1.19,1.19,0,0,1-.54-.07l-.6-.42-.1.1a3,3,0,0,0-1-.43l-.19-.06-.2-.08-.06,0a2.06,2.06,0,0,0-.3-.73l-.08-.13-.81-3.54-.6,2.27-.42-.1a2.51,2.51,0,0,0-.76-.06,1.5,1.5,0,0,0-.23-.17l-.08-.16,0,0,.41-.59h-1.2l-.16-.32-.46-.07a.55.55,0,0,1-.17-.11l-.28-.18-.47-.27-.43.27a2.64,2.64,0,0,1-.3,0l-.43-.08-.13-.26-.58-.05-.34,0,.06-.74.35.14-.18-.61a1.1,1.1,0,0,0,.26-.14l1.14-.79a1.24,1.24,0,0,0,.41.08,1,1,0,0,0,.86-.49,1,1,0,0,0,.11-.65v0l.23,0-.17-.23a1.31,1.31,0,0,0,0-.44l-.07-.41-.36-.21a1.82,1.82,0,0,0-.47-.17l-.83-.25-.42-.27.17.28-.12,1a2.28,2.28,0,0,0,0,.37v0l-.13.29.07.3a1.13,1.13,0,0,0,.27.48l-.69-.4h0a1.35,1.35,0,0,0-1-.47l-.24,0-.11,0-.85-.29a6.06,6.06,0,0,1-.86-.4c-.22-.11-.45-.23-.7-.33l.09-.23a2.83,2.83,0,0,0-.14-1.93,1.9,1.9,0,0,1-.16-.65,3.8,3.8,0,0,0,.92-.64,2.67,2.67,0,0,1,.46-.35l.26-.15,5,2.83L193.32,228a1,1,0,0,0,.23-.44l.19-.11.11-.32a2,2,0,0,0,.07-.31l.12,0a5.47,5.47,0,0,0,.7-.25l.66-.33-.19-.71v0c0-.05.15-.15.2-.2l.06,0h.09l.25,1.12,1.13-.94a3.81,3.81,0,0,1,.76-.44l.55-.28,1.8-1-.53-.17.23,0,.28,0h0l.46.2.41-.28a1.63,1.63,0,0,0,.57-1.48l0-.78-.67-.17h-.07a.83.83,0,0,0,0-.22l.15-2.2.47-.3L201,218l0-.44-.27.36-1.19-.37-.34-.09,0-.31-.43-.17.18-.73-.18-.09-.46-.46,0,0,.52-.87-1-.11a3.23,3.23,0,0,0-.22-.52l-.28-.55.37,0-.32-.59.57,0-.25-.88.23-.19-.11-.39,1.06.56-.79-.86h.19V211l.37.15-.11-1.32.11-.11a1,1,0,0,0,.11-.17l0-.1a.82.82,0,0,0,.08-.35l.32-.53-.84-.45A1.75,1.75,0,0,0,198,208a1.59,1.59,0,0,0-.13-.13,1.67,1.67,0,0,0-.72-.83l-.34-.18h0a2,2,0,0,0-.2-.22l.31-.44-.16-.15a1.17,1.17,0,0,0,0-.56l-.07-.33-.26-.2-.14-.1-.06-.15.08-.62h-.75l-.17-.09v-.24l-.42-.33a1.39,1.39,0,0,0-.53-.31l.22-.48-.81-.08-.1-.43-.27-.09a1.74,1.74,0,0,0-1.75-1.5l.54-.3-.23-.7s0-.06.12-.26l.33-.49-.32-.5a1.61,1.61,0,0,0-.24-.28l0,0,.06,0a1.27,1.27,0,0,0,.79-1.63l-.06-.17a1.3,1.3,0,0,0,.19-.33l1.16.07a1.08,1.08,0,0,0-.08.19l-.39,1.3.81-.08.22,0v.42l.36.24,0,0a1.46,1.46,0,0,0,.76.56l.59.18.18-.23H197a1.22,1.22,0,0,0,.81-.32l.19.1,0,0a2,2,0,0,0,.25.14l.06,0a4.19,4.19,0,0,1,.46.26,1.26,1.26,0,0,1,0,.16l0,.42.29.3a1.5,1.5,0,0,0,.24.21,1,1,0,0,0,.1.33,1,1,0,0,0,.18.27v.19a2.46,2.46,0,0,0,.23,1.21v.08l-.05.65.23.11a2.66,2.66,0,0,0-.08.44,1.2,1.2,0,0,0-.24.77v.59l.33.14,0,.79a1.66,1.66,0,0,0,0,.37.1.1,0,0,0,0,0h0l-.1.73.7.24.06,0a2.63,2.63,0,0,0,.3.12,1.12,1.12,0,0,0-.41.32l-.25.32.05.34h0a2.21,2.21,0,0,0-.12.27l-.22.58.35.31,0,.19.1.27L201,211l.12.32a2.46,2.46,0,0,0,.56,1.54,1.22,1.22,0,0,1,.26.51l.09.67.38.06a1.25,1.25,0,0,0,.81.57h.09l-.34,1.84,1.72-1.29.11,0,3.46-.65-2.44-.79a2.28,2.28,0,0,0,.16-1.13,1.9,1.9,0,0,0,.36-.65,1,1,0,0,0,.23-.69l.76.13-.17-.45.05,0,.1-.54.33.24.53-.68,0,0,.33-.36a3.17,3.17,0,0,0,.68-1l.28.28.35-.58.06.05.5-.23c.12-.06.26-.1.4-.16a4.06,4.06,0,0,0,1-.46Zm-29.46-8.14a2.88,2.88,0,0,0,.13-.45l.28.1-.45.47A.56.56,0,0,1,182.59,199.17Zm10.31,37-.4,1.25c0-.08,0-.14,0-.19l-.12-.65-.53-.16a1.13,1.13,0,0,0-.32,0,1.11,1.11,0,0,0-1.06.81l-.07-.1.13-.82-.44.09.09-1.18a2,2,0,0,1,1.12.5l.28.42.53,0h.22a1.65,1.65,0,0,0,.51-.07A1,1,0,0,0,192.9,236.2Zm-13.12-39.82,0,.06,0,.07a1.76,1.76,0,0,0-.16.31l-.24-.06a.94.94,0,0,0-.62-.43l0-.08a1.46,1.46,0,0,0,0-.17,1.38,1.38,0,0,0,.88.31h.13Zm-.51,4.43a2.29,2.29,0,0,0,1.44-.69l.08-.07a2.09,2.09,0,0,0,.9,0l.11,0,.44-.07,1.7,0h0l.08,0-.5.4a1.32,1.32,0,0,0-.47.65l-.14-.13-.15-.35-.36-.1-.37-.32,0,.24a1.36,1.36,0,0,0-.29,0,1.07,1.07,0,0,0-1,.65h-.06l-.27.36,0,0-.69-.3-.09.37-.21-.09-.12,0-.09-.11h0l0,0-.12-.1-.37-.32s0-.09-.08-.14A1.4,1.4,0,0,0,179.27,200.81Zm10.42,33.42-.33,0-.1.81.4.09-.84,1a1.73,1.73,0,0,0-.3,0,2.57,2.57,0,0,0,.38-1.31l0-.9H188a3.69,3.69,0,0,0-1.32.25l-.45.2-.08.49c0,.08,0,.14,0,.19a2.88,2.88,0,0,0-.61.1,1.61,1.61,0,0,1-.48-1.33l.2,0,0-.69.28-.68.17,0,.24-.34h0a4.75,4.75,0,0,1,1.05.15l1.12.28v-.79l.2,0,.18.05.29.29.42-.07a2.6,2.6,0,0,0,.64,1.46ZM176.8,205.55h0a1.78,1.78,0,0,0-1.17-.49h-.15l.06,0a1.42,1.42,0,0,0,.48-.2l.37.16.15-.21a1.57,1.57,0,0,0,.25.48Zm6.64-1.34-.42,0a.27.27,0,0,1,0-.15V204l.06.08.23,0Zm6.83,13-.5,0-.55-.16a2,2,0,0,1-.74-.46,4,4,0,0,0-1.08-.71l-.2-.09h-.07a3.32,3.32,0,0,0-.33-.65,1,1,0,0,0-.38-.31l.06-.37c0-.17.06-.35.08-.54a2.69,2.69,0,0,0,.61-.82h.15l.24-.18a1.16,1.16,0,0,0,.39-.54l.65,0a1,1,0,0,0,.52.34l.38.1.33-.21a1.55,1.55,0,0,0,.24-.19h.45a2.16,2.16,0,0,0,.29,0,1,1,0,0,0,.53-.14l0,.05a1.19,1.19,0,0,0-.08.16l-.2.43.23.4v0l0,.13-.1.37.12.29a2.53,2.53,0,0,1,.11.33l-.63.1.14.89a1.28,1.28,0,0,0,.5.81v.06c.06.2.11.4.17.61l0,.33-.13.1c-.09.07-.21.15-.33.26l0-.31Zm1.86-8.23a1.1,1.1,0,0,0,.47.1l0,.23-.68-.17-.31.6,0,0a1.47,1.47,0,0,0-.35.57l-.18-.18a1.47,1.47,0,0,0-.49-.36l.24-.32a2.4,2.4,0,0,1,.22-.24,4.9,4.9,0,0,0,.39-.46l.21-.31v0l.13.34Zm-7.49-9v0l.08,0Zm8.22,11.82.23-.18h0l.05,0,0,0L193,212l-.13,0-.2-.06Zm3,2.44,0,.07-.11-.06v-.63l.31,0Zm-4.07-7.17a1.4,1.4,0,0,0-.25.63l0-.79a1.55,1.55,0,0,0,0-.32l.31.16.19-.26a.91.91,0,0,1,.15.25A1.12,1.12,0,0,0,191.84,207.16Zm-1.65,31.36.43.16-.22.08h-.12a.91.91,0,0,0-.07-.14l0,0Zm.44,2.44.27,0a2.64,2.64,0,0,0,0,.28,2.71,2.71,0,0,0-.23.24Zm6.83-18,0,0,.62-.91h.05l.11,0a2.14,2.14,0,0,1-.1.22l-.37.77Zm-4.13,14.89h0a1.29,1.29,0,0,0-.36.06l0-.06-.42.15-.06,0v-.12l1.57-.94Zm-9-42,0,.14-.21-.11ZM161,204.84l.08.1h0l-.13-.15Z"/></clipPath><radialGradient id="radial-gradient-3" cx="578.52" cy="622" r="11.96" gradientTransform="translate(-569.87 636.67) rotate(-90)" gradientUnits="userSpaceOnUse"><stop offset="0" stop-color="#05caff"/><stop offset="1" stop-color="#012c9f"/></radialGradient><radialGradient id="radial-gradient-4" cx="568.71" cy="622" r="11.18" gradientTransform="translate(-569.87 636.67) rotate(-90)" gradientUnits="userSpaceOnUse"><stop offset="0" stop-color="#aadb00"/><stop offset="1" stop-color="#3a7d03"/></radialGradient><radialGradient id="radial-gradient-5" cx="582.36" cy="595.66" r="11.65" xlink:href="#radial-gradient-3"/><radialGradient id="radial-gradient-6" cx="589.56" cy="603.48" r="12.78" xlink:href="#radial-gradient-4"/><radialGradient id="radial-gradient-7" cx="610.13" cy="608.06" r="13.4" gradientTransform="translate(-569.87 636.67) rotate(-90)" gradientUnits="userSpaceOnUse"><stop offset="0" stop-color="#fffd02"/><stop offset="1" stop-color="#ff7c01"/></radialGradient><radialGradient id="radial-gradient-8" cx="595.21" cy="609.37" r="14.83" xlink:href="#radial-gradient-3"/><radialGradient id="radial-gradient-9" cx="606.59" cy="621.9" r="16.35" xlink:href="#radial-gradient-7"/><radialGradient id="radial-gradient-10" cx="573.88" cy="629.56" r="8.97" xlink:href="#radial-gradient-7"/><radialGradient id="radial-gradient-11" cx="585.7" cy="629.56" r="9.93" xlink:href="#radial-gradient-3"/><radialGradient id="radial-gradient-12" cx="595.03" cy="592.31" r="17.36" gradientTransform="translate(-569.87 636.67) rotate(-90)" gradientUnits="userSpaceOnUse"><stop offset="0" stop-color="#ff3042"/><stop offset="1" stop-color="#610219"/></radialGradient><radialGradient id="radial-gradient-13" cx="617.93" cy="592.31" r="19.22" xlink:href="#radial-gradient-7"/><radialGradient id="radial-gradient-14" cx="576.3" cy="593.01" r="10.31" xlink:href="#radial-gradient-3"/><radialGradient id="radial-gradient-15" cx="576.73" cy="593.01" r="10.4" xlink:href="#radial-gradient-4"/><radialGradient id="radial-gradient-16" cx="584.66" cy="603.12" r="21.75" xlink:href="#radial-gradient-3"/><radialGradient id="radial-gradient-17" cx="591.49" cy="603.12" r="21.89" xlink:href="#radial-gradient-7"/><radialGradient id="radial-gradient-18" cx="558.64" cy="625.76" r="11.99" xlink:href="#radial-gradient-3"/><radialGradient id="radial-gradient-19" cx="558.64" cy="624.89" r="12.4" xlink:href="#radial-gradient-3"/><radialGradient id="radial-gradient-20" cx="598.79" cy="628.53" r="21.16" xlink:href="#radial-gradient-12"/><radialGradient id="radial-gradient-21" cx="590.65" cy="628.53" r="21.84" xlink:href="#radial-gradient-4"/><radialGradient id="radial-gradient-22" cx="586.42" cy="610.71" r="3.32" xlink:href="#radial-gradient-3"/><radialGradient id="radial-gradient-23" cx="590.01" cy="610.71" r="4.06" xlink:href="#radial-gradient-3"/><radialGradient id="radial-gradient-24" cx="575.26" cy="607.38" r="4.44" xlink:href="#radial-gradient-7"/><radialGradient id="radial-gradient-25" cx="580.93" cy="607.38" r="5.09" xlink:href="#radial-gradient-4"/><radialGradient id="radial-gradient-26" cx="568.71" cy="590.48" r="18.73" xlink:href="#radial-gradient-7"/><radialGradient id="radial-gradient-27" cx="570.77" cy="590.48" r="18.23" xlink:href="#radial-gradient-3"/><radialGradient id="radial-gradient-28" cx="8.33" cy="-141.61" r="26.67" gradientTransform="translate(-118.4 82.04) rotate(90)" xlink:href="#radial-gradient-7"/><radialGradient id="radial-gradient-29" cx="-4.11" cy="-141.61" r="26.69" gradientTransform="translate(-118.4 82.04) rotate(90)" xlink:href="#radial-gradient-3"/><radialGradient id="radial-gradient-30" cx="14.67" cy="-164.02" r="10.05" gradientTransform="translate(-118.4 82.04) rotate(90)" xlink:href="#radial-gradient-3"/><radialGradient id="radial-gradient-31" cx="14.67" cy="-151.46" r="9.96" gradientTransform="translate(-118.4 82.04) rotate(90)" xlink:href="#radial-gradient-4"/><radialGradient id="radial-gradient-32" cx="1.29" cy="-141.61" r="11.12" gradientTransform="translate(-118.4 82.04) rotate(90)" xlink:href="#radial-gradient-3"/><radialGradient id="radial-gradient-33" cx="-11.17" cy="-141.61" r="10.84" gradientTransform="translate(-118.4 82.04) rotate(90)" xlink:href="#radial-gradient-3"/><radialGradient id="radial-gradient-34" cx="-40.76" cy="-146.47" r="9.41" gradientTransform="translate(-118.4 82.04) rotate(90)" xlink:href="#radial-gradient-7"/><radialGradient id="radial-gradient-35" cx="-51.23" cy="-145.55" r="10.41" gradientTransform="translate(-118.4 82.04) rotate(90)" xlink:href="#radial-gradient-3"/><radialGradient id="radial-gradient-36" cx="-30.03" cy="-136.75" r="10.28" gradientTransform="translate(-118.4 82.04) rotate(90)" xlink:href="#radial-gradient-3"/><radialGradient id="radial-gradient-37" cx="-43.24" cy="-136.75" r="11.48" gradientTransform="translate(-118.4 82.04) rotate(90)" xlink:href="#radial-gradient-7"/><radialGradient id="radial-gradient-38" cx="-9.14" cy="-163.87" r="8.43" gradientTransform="translate(-118.4 82.04) rotate(90)" xlink:href="#radial-gradient-3"/><radialGradient id="radial-gradient-39" cx="1.97" cy="-163.87" r="9.33" gradientTransform="translate(-118.4 82.04) rotate(90)" xlink:href="#radial-gradient-7"/><radialGradient id="radial-gradient-40" cx="-51.35" cy="-157.52" r="12.19" gradientTransform="translate(-118.4 82.04) rotate(90)" xlink:href="#radial-gradient-12"/><radialGradient id="radial-gradient-41" cx="-35.29" cy="-157.52" r="13.49" gradientTransform="translate(-118.4 82.04) rotate(90)" xlink:href="#radial-gradient-7"/><radialGradient id="radial-gradient-42" cx="3.1" cy="-145.26" r="8.06" gradientTransform="translate(-118.4 82.04) rotate(90)" xlink:href="#radial-gradient-12"/><radialGradient id="radial-gradient-43" cx="-6.24" cy="-144.76" r="8.98" gradientTransform="translate(-118.4 82.04) rotate(90)" xlink:href="#radial-gradient-3"/><radialGradient id="radial-gradient-44" cx="-18.26" cy="-158.24" r="9.85" gradientTransform="translate(-118.4 82.04) rotate(90)" xlink:href="#radial-gradient-12"/><radialGradient id="radial-gradient-45" cx="-5.28" cy="-158.24" r="10.9" gradientTransform="translate(-118.4 82.04) rotate(90)" xlink:href="#radial-gradient-7"/><radialGradient id="radial-gradient-46" cx="-47.97" cy="-128.8" r="17.25" gradientTransform="translate(-118.4 82.04) rotate(90)" xlink:href="#radial-gradient-12"/><radialGradient id="radial-gradient-47" cx="16.79" cy="-142.09" r="12.1" gradientTransform="translate(-118.4 82.04) rotate(90)" xlink:href="#radial-gradient-7"/><radialGradient id="radial-gradient-48" cx="14.67" cy="-142.09" r="12.82" gradientTransform="translate(-118.4 82.04) rotate(90)" xlink:href="#radial-gradient-3"/><radialGradient id="radial-gradient-49" cx="15.47" cy="-174.01" r="15.65" gradientTransform="translate(-118.4 82.04) rotate(90)" xlink:href="#radial-gradient-12"/><radialGradient id="radial-gradient-50" cx="15.47" cy="-173.58" r="15.87" gradientTransform="translate(-118.4 82.04) rotate(90)" xlink:href="#radial-gradient-7"/><radialGradient id="radial-gradient-51" cx="-19.32" cy="-157.88" r="3.61" gradientTransform="translate(-118.4 82.04) rotate(90)" xlink:href="#radial-gradient-3"/><radialGradient id="radial-gradient-52" cx="-14.72" cy="-157.88" r="4.14" gradientTransform="translate(-118.4 82.04) rotate(90)" xlink:href="#radial-gradient-7"/><radialGradient id="radial-gradient-53" cx="1.06" cy="-143.88" r="4.79" gradientTransform="translate(-118.4 82.04) rotate(90)" xlink:href="#radial-gradient-3"/><radialGradient id="radial-gradient-54" cx="-4.52" cy="-144.73" r="5.28" gradientTransform="translate(-118.4 82.04) rotate(90)" xlink:href="#radial-gradient-4"/><radialGradient id="radial-gradient-55" cx="-10.87" cy="-154.35" r="6.56" gradientTransform="translate(-118.4 82.04) rotate(90)" xlink:href="#radial-gradient-3"/><radialGradient id="radial-gradient-56" cx="-2.5" cy="-154.35" r="7.52" gradientTransform="translate(-118.4 82.04) rotate(90)" xlink:href="#radial-gradient-4"/><radialGradient id="radial-gradient-57" cx="-35.32" cy="-163.74" r="18.37" gradientTransform="translate(-118.4 82.04) rotate(90)" xlink:href="#radial-gradient-7"/><radialGradient id="radial-gradient-58" cx="-25.52" cy="-163.74" r="18.5" gradientTransform="translate(-118.4 82.04) rotate(90)" xlink:href="#radial-gradient-3"/><radialGradient id="radial-gradient-59" cx="-15.85" cy="-136.68" r="19.14" gradientTransform="translate(-118.4 82.04) rotate(90)" xlink:href="#radial-gradient-7"/><radialGradient id="radial-gradient-60" cx="-19.61" cy="-136.68" r="20.17" gradientTransform="translate(-118.4 82.04) rotate(90)" xlink:href="#radial-gradient-4"/><radialGradient id="radial-gradient-61" cx="27.31" cy="-161.27" r="25.95" gradientTransform="translate(-118.4 82.04) rotate(90)" xlink:href="#radial-gradient-12"/><radialGradient id="radial-gradient-62" cx="27.31" cy="-150.12" r="25.91" gradientTransform="translate(-118.4 82.04) rotate(90)" xlink:href="#radial-gradient-3"/><linearGradient id="linear-gradient" x1="521.69" y1="601.6" x2="733.64" y2="601.6" gradientTransform="translate(-569.87 636.67) rotate(-90)" gradientUnits="userSpaceOnUse"><stop offset="0" stop-color="#ffdf81"/><stop offset="0.04" stop-color="#d0d187"/><stop offset="0.14" stop-color="#5ab095"/><stop offset="0.2" stop-color="#0096a0"/><stop offset="0.51" stop-color="#ca234d"/><stop offset="0.7" stop-color="#ffc61c"/><stop offset="0.72" stop-color="#fbc51e"/><stop offset="0.74" stop-color="#efc024"/><stop offset="0.75" stop-color="#dcb92e"/><stop offset="0.77" stop-color="#c0ae3d"/><stop offset="0.79" stop-color="#9ca14f"/><stop offset="0.8" stop-color="#709166"/><stop offset="0.82" stop-color="#3c7d81"/><stop offset="0.83" stop-color="#02689f"/><stop offset="0.83" stop-color="#0067a0"/></linearGradient><clipPath id="clip-path-2" transform="translate(-155.97 -157.5)"><path class="cls-3" d="M212.15,214.29l.07,0a2.52,2.52,0,0,0,.56.11h.12a1.59,1.59,0,0,0,.43-.06,1.48,1.48,0,0,0,1-.58l.35-.47-.06-.11a1.51,1.51,0,0,0,0-.76l.13-.29.14-.07a2.26,2.26,0,0,0,.56-.33H216l.13-.64h0a2.33,2.33,0,0,0,.31-.49l.13-.33-.13-.34v0l.08-.77-.64,0a1.22,1.22,0,0,0-1-.69l-.6-.08-.21.36,0,0-.8-.28-.1.25-.09-.08h-.39a.87.87,0,0,0-.76.41l-.49-.09.25.72-.29,1.09h.1l-.19.32.38.15a1.44,1.44,0,0,0-.31,1,1.92,1.92,0,0,0-.12.25,1.52,1.52,0,0,0,.08,1.2A1.41,1.41,0,0,0,212.15,214.29Z"/></clipPath><radialGradient id="radial-gradient-63" cx="45.92" cy="55.72" r="13.35" gradientTransform="matrix(1, 0, 0, 1, 0, 0)" xlink:href="#radial-gradient-12"/><radialGradient id="radial-gradient-64" cx="63.52" cy="55.72" r="14.78" gradientTransform="matrix(1, 0, 0, 1, 0, 0)" xlink:href="#radial-gradient-7"/><radialGradient id="radial-gradient-65" cx="63.49" cy="48.91" r="20.13" gradientTransform="matrix(1, 0, 0, 1, 0, 0)" xlink:href="#radial-gradient-7"/><radialGradient id="radial-gradient-66" cx="335.4" cy="241.45" r="6.46" gradientTransform="translate(398.65 293.97) rotate(180)" xlink:href="#radial-gradient-3"/><radialGradient id="radial-gradient-67" cx="341.37" cy="231.46" r="6.9" gradientTransform="translate(398.65 293.97) rotate(180)" xlink:href="#radial-gradient-4"/><radialGradient id="radial-gradient-68" cx="344.42" cy="234.63" r="8.01" gradientTransform="translate(398.65 293.97) rotate(180)" xlink:href="#radial-gradient-3"/><radialGradient id="radial-gradient-69" cx="350.56" cy="241.4" r="8.83" gradientTransform="translate(398.65 293.97) rotate(180)" xlink:href="#radial-gradient-7"/><radialGradient id="radial-gradient-70" cx="339.28" cy="245.54" r="5.36" gradientTransform="translate(398.65 293.97) rotate(180)" xlink:href="#radial-gradient-3"/><radialGradient id="radial-gradient-71" cx="338.72" cy="231.26" r="11.74" gradientTransform="translate(398.65 293.97) rotate(180)" xlink:href="#radial-gradient-3"/><radialGradient id="radial-gradient-72" cx="342.4" cy="231.26" r="11.82" gradientTransform="translate(398.65 293.97) rotate(180)" xlink:href="#radial-gradient-7"/><radialGradient id="radial-gradient-73" cx="346.92" cy="247.51" r="13.27" gradientTransform="translate(398.65 293.97) rotate(180)" xlink:href="#radial-gradient-12"/><radialGradient id="radial-gradient-74" cx="341.82" cy="247.51" r="13.69" gradientTransform="translate(398.65 293.97) rotate(180)" xlink:href="#radial-gradient-4"/><radialGradient id="radial-gradient-75" cx="339.67" cy="235.36" r="1.79" gradientTransform="translate(398.65 293.97) rotate(180)" xlink:href="#radial-gradient-3"/><radialGradient id="radial-gradient-76" cx="341.61" cy="235.36" r="2.19" gradientTransform="translate(398.65 293.97) rotate(180)" xlink:href="#radial-gradient-3"/><linearGradient id="linear-gradient-2" x1="-10.49" y1="53.8" x2="152.52" y2="53.8" gradientTransform="matrix(1, 0, 0, 1, 0, 0)" xlink:href="#linear-gradient"/><clipPath id="clip-path-3" transform="translate(-155.97 -157.5)"><path class="cls-3" d="M291.78,211.39a1.3,1.3,0,0,0-.95-.39h0a.81.81,0,0,1,.14-.2.87.87,0,0,0,.12-.14,1,1,0,0,0,.47-.31l.1-.11.05-.14a1.44,1.44,0,0,0-.34-1.51l0,0-.16-.38-.44-.11a1.44,1.44,0,0,0-.46-.05l.06-.26-.84-.23c-.05,0-.12-.1-.22-.29l-.14-.24-.25-.13a5.35,5.35,0,0,1-1-.68c-.2-.16-.4-.32-.61-.47l.27-.19h.26a1.27,1.27,0,0,0,1.14-.57l.24-.37-.14-.41a1.38,1.38,0,0,0-1.31-.93,1.54,1.54,0,0,0-1.17.54,1.3,1.3,0,0,0-.3,1.05l.05.33-.06,0H286a11.35,11.35,0,0,1-1.86-.17l-.9-.14-.07.46-.31,0a1,1,0,0,0-.6.19l-.2-.06a2.34,2.34,0,0,0-.89-.18,1.51,1.51,0,0,0-.3,0l-.15,0a1.45,1.45,0,0,0-.29-.7,2.22,2.22,0,0,0-1.82-.71l-.72,0-.2,0h0l-.21-.39-.44-.07a.19.19,0,0,1-.1,0l.07-.68-.66-.24a12.06,12.06,0,0,0-1.4-.37l-.37-.08,0-.17a1.52,1.52,0,0,0-.38-1.18,1.42,1.42,0,0,0-1-.49l.1-.05,1.64.65-.34-.87.16-.05a1.84,1.84,0,0,0,1.33.61,1.31,1.31,0,0,0,1.27-.93l.31-1-1-.19-.49-.08a1.48,1.48,0,0,0-.52-.33l-.3-.14.25-1.94-.81,1.68-.3-.15,0,.23a1.87,1.87,0,0,0-.53-.25l-.17,0a1.5,1.5,0,0,0-.25-.19l-.66-.37-.19.24-.14-.09-.35-.2-.37.13a1.35,1.35,0,0,0-1,1.18s0,.05,0,.07l-.17.31.11.37-.2.48.4.4,0,.07a1.38,1.38,0,0,0,1.14.74,1.05,1.05,0,0,0,.24,0,.27.27,0,0,0-.08.07,1.11,1.11,0,0,0-.26.46l-.74-.35.76,1.85a1.52,1.52,0,0,0-.36.59,2.33,2.33,0,0,0-.06.33,1.69,1.69,0,0,0-.85-.29h-.28l-.08.06a1.07,1.07,0,0,0-.16-.14l-1-.73-.06.16a2.11,2.11,0,0,0-.45-1.42l-.2-.25-.31-.08a1.61,1.61,0,0,0-.69,0,1.65,1.65,0,0,0-.92-.37l-.75-.07,0,.15-.21.51a1.48,1.48,0,0,0-.12.47,1.92,1.92,0,0,1-.32,0h0l-.12-.67-.67-.07a2.34,2.34,0,0,1-.32-.07,2.29,2.29,0,0,0-.68-.12,1.33,1.33,0,0,0-.45.07l-.2-.27-.09,0,0-.12.05,0a1.6,1.6,0,0,0,.71-1.44l0-.33,0-.08.05-.36-.22-.29-.23-.38a3.24,3.24,0,0,0-.87-1.08L262,196h-.29l-.22,0h0l-.2,0v-.09l-.58-.23v-.17l0-.36-.27-.24a1.59,1.59,0,0,0-1.52-.37,0,0,0,0,0,0,0l.13-.85-.85-.17a1.09,1.09,0,0,0-1,.29,1.13,1.13,0,0,0-.3.86l0,1,.86-.13a5.54,5.54,0,0,0-.39.77l0,.1-.95-.05.15.5h-.17l0,.12-.21,0a1.55,1.55,0,0,0-.53.05l-.56-.09-.31.53-.05.09a4.63,4.63,0,0,0-2.31,1.52l-.13.17,0,.21a1.46,1.46,0,0,0,0,.17l-.63.48.28.35-.49.06a5.08,5.08,0,0,0-.83.14l-.36.1L250,201a1.56,1.56,0,0,0-.13,1.23,1.69,1.69,0,0,0-.54.12l-.17.07h0l-.26-1.8-.78,1.31,0-.07-.54-.18a3.64,3.64,0,0,0-1.15-.26h0l-.81,0-.09.77a2.17,2.17,0,0,1-.52,1.42l-.54.43.27.64a1.28,1.28,0,0,1,.09.73,4.33,4.33,0,0,0-1.17-.38v0l-.32-.06-.22-.18-.17-.13.26-.27-.45-.22.09-.7-.5.51-.24-.11a3.78,3.78,0,0,1-.08-1.3l.08-.07h.08l2.07,2.22-1.26-3.54.13-.28a1.06,1.06,0,0,0,.09-.25l.5.19.19-1,.14-.13a5,5,0,0,0,.45-.51.76.76,0,0,0,.08-.11,1,1,0,0,0,.24,0l.06,0c1.3-.48,2-1.05,2.15-1.78a1.56,1.56,0,0,0-.46-1.44l-.45-.46-.58.27a4,4,0,0,0-1,.68c-.35.32-.48.41-.66.41a.82.82,0,0,1-.21,0l-1.42-.34.19.81-.11.08a4.72,4.72,0,0,0-.71.82,2.22,2.22,0,0,1-.52.59l-.33.2-.08.37a1.09,1.09,0,0,0,0,.54.5.5,0,0,0,0,.13h0l-.13.1-.11.09-.07.12a1.53,1.53,0,0,1-.14.17l-.11.13-1,1.23.29,0v.68l-.46,0v1a1.18,1.18,0,0,0,.33.92l.28.26h.22a1,1,0,0,0,.29.67l.29.28.38,0,.18,0a2.55,2.55,0,0,0,.73,0,1.16,1.16,0,0,0,0,.18l0,.32.13.1a1.19,1.19,0,0,1-.23.13h-.07l-.25-.06-.18.06-.29-.47-.72.35-.12.07a1.1,1.1,0,0,0-2-.31,1.26,1.26,0,0,0-.17.44,1.23,1.23,0,0,0-.47-.09,1.33,1.33,0,0,0-.49.09l-.7.26.1.56c-.26-.23-.53-.43-.79-.63a6.12,6.12,0,0,1-.8-.66l-.2-.2-.28-.05-.41-.05-.33-.08a1.75,1.75,0,0,0-.43-.22l0-.24a1.87,1.87,0,0,0-.15-.5l-.14-.33-.34-.14a1.05,1.05,0,0,0-.52-.09l-1.42-.74.09.62-1.06-1.12-.25,1.79-.05,0,0,0a1,1,0,0,0-.52.23,1,1,0,0,0-.42.19h0l-.38.24a1.16,1.16,0,0,0-.24.2l-.56.1-.1.6,0,.09a2.06,2.06,0,0,0-.15.3.91.91,0,0,0-.49.53,1.27,1.27,0,0,0,0,.18l-.28,0v.05l-.2.28a2,2,0,0,0-.12.19l-.1.1-.25.05-.05.23-.07.07h.06l-.08.36c-.1.44-.22,1-.41,1.11l-.4.27v.25a1.66,1.66,0,0,0-.47.79,1.45,1.45,0,0,0-.89.76l-.46.15v.54a1.62,1.62,0,0,0-.47.84l-.23,1.23.35,0v.78h0l-.26.41.44.45a1.31,1.31,0,0,0-.67,1.12,1.48,1.48,0,0,0,.39,1.12l0,.61h-.09a1.1,1.1,0,0,0-.46-.29,4.42,4.42,0,0,0-.48-1c-.09-.15-.17-.29-.24-.43l-.07-.14a2.82,2.82,0,0,0,.15-.57l.09-.73.39-.27-.34-.14.06-.41-.53.22-.72-.3a1.35,1.35,0,0,0-.47-.08l-.59-.18-.38.53a2.25,2.25,0,0,0-.35,1.11l0,.24-.09-.36-.26.1v-.54H217a1.06,1.06,0,0,0-.81.36,1.09,1.09,0,0,0-.28.73,1.23,1.23,0,0,0,0,.19,1,1,0,0,0-.07.29l-.06.84.37.05.09.56a1.17,1.17,0,0,0,0,.48l0,.32,0,.08a1.22,1.22,0,0,0,0,.6v1.11l1.19-.37a4,4,0,0,0,.44-.18l.19-.08-.2.61.51.27a1.21,1.21,0,0,0-.25.55L218,223l.77.24.29.1,0,.33.33.15a2.16,2.16,0,0,1,0,.31h-.07a.77.77,0,0,1-.22,0l-.46-.06a6.51,6.51,0,0,0-.76-.07,1.54,1.54,0,0,0-1.17.45l-.23.23,0,.33a1.13,1.13,0,0,0,0,.38l-.09.47.15.1-.08.26a3.65,3.65,0,0,0-.19.83l-.05.53.16.11a1.06,1.06,0,0,0,.16.65l.25.39.53,0h0l-.29.25A2.62,2.62,0,0,0,216,230.5a1.94,1.94,0,0,0,0,.52,2.47,2.47,0,0,0-.23.23l-.33-.16-.55.78a11.48,11.48,0,0,0-1.37,2.29l-.33.09.15.45-.43,1.26.68-.18a5.27,5.27,0,0,1,0,.69v.05a2.6,2.6,0,0,1-.17.39l-.3.41.18.44-1.9,1.24,1.43,0-1.22,1.46,2.74-1a1.31,1.31,0,0,0,.33.36l.05.13a1.4,1.4,0,0,0,.77,1l.19.15.2.16a3.89,3.89,0,0,0,.41.34l-.53,1,1.7-.53.48.13.09-.3a1.91,1.91,0,0,1,.7-.11l.11.35.78-.2.52.09v.74l.41-.43.5,1.22.45-2.23h.05s0,.08.06.16l.14.42.42.15a1.27,1.27,0,0,0,.64,0l-.41.59.55.07a1.34,1.34,0,0,0-.11.72,2,2,0,0,0,.86,1.34,1.09,1.09,0,0,0,.29.45v0l0,.45.2,0a2,2,0,0,0,0,.26,5.22,5.22,0,0,1,.16,1.2,3.83,3.83,0,0,0-.72,1.88l-.1.08.05.31-.14,1.22.47-.2c.11.21.23.39.35.58a1.71,1.71,0,0,1,.39.85,3.09,3.09,0,0,0,.07.77l0,.16a2.86,2.86,0,0,1,0,.34,1.77,1.77,0,0,0,.66,1.49,2.8,2.8,0,0,0,.37.82,2,2,0,0,1,.18.35,1.45,1.45,0,0,0,0,.61,1.35,1.35,0,0,0,1.34,1.21,2.6,2.6,0,0,0,.82-.17,1.32,1.32,0,0,1,.32-.09h.18a2.74,2.74,0,0,0,.7,0,2.12,2.12,0,0,0,.54-.18l.09,0h.24l.24-.15a4.62,4.62,0,0,0,1.34-1.51,3.89,3.89,0,0,1,.66-.87l.38-.34-.07-.4a1.72,1.72,0,0,0,0-.45v-.07l0,0a2.36,2.36,0,0,1,.32-.16l.34-.13.16-.32a2.34,2.34,0,0,0,.07-1.83l0-.17.09-.11a.27.27,0,0,1,.07-.08,1.67,1.67,0,0,1,.45-.27,3,3,0,0,0,.85-.53,2,2,0,0,0,.29-.39,2.4,2.4,0,0,0,.11.84s0,.1,0,.14l0,0a1.77,1.77,0,0,0-.36.88,1.51,1.51,0,0,0,.08.62,1.39,1.39,0,0,1,.05.23c.13,1.32,1,1.42,1.3,1.42a2,2,0,0,0,.89-.25l.28-.13.14-.29a13.3,13.3,0,0,0,1.08-3.65,1.09,1.09,0,0,0,.22-.56l0-.21-.07-.17v-.09a1.51,1.51,0,0,0-.78-1.29l-.94-.43-.3,1c-.1.35-.31.75-.58.75h0l-.43,0-.3.32a.94.94,0,0,0-.16.2,5.24,5.24,0,0,0,0-.88c0-.13,0-.27,0-.41l.17-.08-.15-.44.08-1.2-.33.14.16-.34-.24-.32.12-.39.72-.91a7.79,7.79,0,0,1,.92-1l.06,0a1.85,1.85,0,0,0,.45-.26,4.06,4.06,0,0,0,.74-.93l0,0a1.37,1.37,0,0,0,.38-.36,3,3,0,0,0,.24-.52,1.44,1.44,0,0,1,.22-.43v0a2.21,2.21,0,0,0,.47-2l-.16-.45h0l.43-.14.12-.38a2.45,2.45,0,0,0,1.31-.72,1.5,1.5,0,0,1,.3-.23l.57-.26,0-.49a1.53,1.53,0,0,0,.71-1.28v-.26l-.1-.15h.83v0h.7l.27.95.29-.13.25.33a2.09,2.09,0,0,0,.14.17l.14,3.15.66-2.69.16,0a3.57,3.57,0,0,0,0,.47,3.21,3.21,0,0,0,.37,1.07l0,.09a1,1,0,0,0,.09.41,1.39,1.39,0,0,0,.22.37l-.1.37.44.36a2.58,2.58,0,0,1,.17.42,2.74,2.74,0,0,0,.57,1.09l.46.49a1.68,1.68,0,0,0-.56.44L247,242.7l1.46.12a1.07,1.07,0,0,0,.66.22,1.55,1.55,0,0,0,.31,0l.23-.06.17-.16a1.14,1.14,0,0,0,.33-.92v-.36a1.27,1.27,0,0,0,.93-.84,1.75,1.75,0,0,0-.51-1.68l-.07-.08a8.69,8.69,0,0,0,.09-1.19v-.07a8.28,8.28,0,0,0,1.15-.92,5.83,5.83,0,0,1,.94-.75l.27-.16.09-.24,1.28.65a1.63,1.63,0,0,1,.11.67l-.07.92,1,0a1.21,1.21,0,0,0,.43-.07l.29.26c0,.05.05.16.07.22s.05.16.08.25l.08.22-.11.08a1.07,1.07,0,0,0-.34.52l-1.06.85.46.15-2,.37,1.8,1.22a4,4,0,0,1,.43.41,7.09,7.09,0,0,0,.55.54,5.64,5.64,0,0,1,.27.55,7.23,7.23,0,0,0,.52,1,3.7,3.7,0,0,0,1.47,1.29l.38.41a1.42,1.42,0,0,0,.13.12l.07.54a.76.76,0,0,0,0,.21l0,.32a1.2,1.2,0,0,0,.27,1,1.09,1.09,0,0,0,.81.34H260l.33,0,.23-.24a1.15,1.15,0,0,0,.35-1l0-.07.11-.33a1.78,1.78,0,0,0,.53.08,1.67,1.67,0,0,0,.76-.18l1.5-.76.52,1.66.62-1.59.73,1.33.39-2.66a1.73,1.73,0,0,0-.26-1.3v-.59l-.51.07h0l-.09-.06-.17-.13-.1-.11-.3-1.29.57-1.14c0,.11,0,.22,0,.32v.56l.45.22a1.07,1.07,0,0,0,.66.22l.26,0,1.08-.25-.24-.52.06-.07.53-.63-.32-.32a1,1,0,0,0-.11-.43l-.07-.11.5-1.29-1.4.49,1.59-3.49-2,1.68c0-.12,0-.21,0-.28l.07-.54-.52-.3-.09-.05.13-.95a1.12,1.12,0,0,1,.16-.4,1.51,1.51,0,0,0,.11-.22l.87-1.79-1.11.31a2.36,2.36,0,0,0,.24-1v-.27l0-.07,0-.12,0-.23-.09-.22a1.17,1.17,0,0,0-.05-.11l.15-.47-.43-.28h0a2.77,2.77,0,0,0-.19-.51l0,0a3.2,3.2,0,0,0,.38-.29l.41-.36.12.08a2.94,2.94,0,0,0,0,.83l.24,1.5.31-.25-.71.87,1.61-.6.09.81,1-.25a1.21,1.21,0,0,0,.74-.59l.61.64.34-1,.26-.05.07,0a1.16,1.16,0,0,0,.44-.35,1.47,1.47,0,0,0,.67-.21l.11.42.61.07a1.34,1.34,0,0,0,.35,0,1.21,1.21,0,0,0,.9.41,1,1,0,0,0,1.06-1.05l0,0,0-.18,2.65-.46-2.71-.15a1.06,1.06,0,0,0-1-.73,1.05,1.05,0,0,0-.75.29l-.06,0a1.33,1.33,0,0,1,.34-.75l.28-.33-.05-.24.34.25.15-1.3a1.27,1.27,0,0,0,.67-.78l.29-.95-1-.19a.93.93,0,0,1-.41-.28l.21-1.12.74.09-.24-1.22c0-.14-.05-.27-.08-.4a4.71,4.71,0,0,1-.13-1.68l0-.41-.28-.3a1,1,0,0,0-.94-.29l-.12,0a1.39,1.39,0,0,0-.82-.49l-.1,0c.09-.12.17-.23.24-.34a3.13,3.13,0,0,1,.23-.31.33.33,0,0,1,.12-.09,1.78,1.78,0,0,0,.41-.36,1.32,1.32,0,0,0,.25-.52,1,1,0,0,1,.71-.36.74.74,0,0,1,.25.05l.43.14.2-.13a2.09,2.09,0,0,0,.84-.05l.23-.08.08-.09h.05l.07.5.8,0a1.19,1.19,0,0,0,.41-.08l.46.26-.25.22-.07.25a8,8,0,0,0,.2,3.53l.26,1.33,1-.4a1.63,1.63,0,0,0,.94-1.2l.69-.21-.07-.66h.05l.94-.26-.33-.91c0-.05,0-.07.12-.36a2.73,2.73,0,0,0,.34-1.38l-.07-.79.09-.14a2,2,0,0,0,.44-.2l.36.19.41-.44h0l.75.85.66-.92a3.27,3.27,0,0,1,.46-.44,4.87,4.87,0,0,0,.53-.5,2,2,0,0,0,.68-.44l0,0,.23,0,.21-.16a1.61,1.61,0,0,0,.33.06l1,.09,0-1a3.38,3.38,0,0,0-.29-1.24,3,3,0,0,0,.46-.51l.06,0-.07.6.9,0h0a1.6,1.6,0,0,0,.59.3l-.56.59,1.37.4h0a1.52,1.52,0,0,0,.7.26l1,.09,0-1A1.1,1.1,0,0,0,291.78,211.39Zm-13.23,3.77.29-.32.43-.49.05.53a2.68,2.68,0,0,1-.82.85h0l0-.25A1.22,1.22,0,0,0,278.55,215.16Zm-10,12.06.27-.18.66-.2h-.44l.25-.21-.1-.32,0-.05,0,0,.43,0a2.32,2.32,0,0,0,1.71-1.11l0,0a1.13,1.13,0,0,1,.1-.13v.74l-.11,0,.11.08v.67c0,.66-.26.91-1.13,1.35l-.48.24v0l-.35,0Zm.61,1.06-.22.12s0-.06,0-.09Zm2.49-3.49c.17-.23.32-.45.46-.66l.07.38,0,0v0a1,1,0,0,0-.35.31Zm-11.58,19.28v.54l-.08,0a3.64,3.64,0,0,0,0-.52V244A.21.21,0,0,1,260.11,244.07Zm-.35-.7-.12-.07a1.59,1.59,0,0,0-.26-.14l-.14-.19.09-.45a1.25,1.25,0,0,0-.23-1v-.11c0-1.06-.6-1.35-1-1.42l0-.31,0-.05h0l.23.21a.94.94,0,0,0,.51.49l1.15.52-.31,1.44A1.71,1.71,0,0,0,259.76,243.37Zm-33.57,12.55h.09l.13,0h0Zm36.46-10.6.09,0a1.33,1.33,0,0,0,.76-.39l.05,0a1.43,1.43,0,0,0,.06.39l.11.35Zm1.53-5.12a1.2,1.2,0,0,0-.46-.38l-.6-.28-.31.35-.55-1-.33,1.54-.22-.1-.27.89-.13.07a2.23,2.23,0,0,0-.32.19l-.8-1.48-.16.75.06-.87h.05a1.83,1.83,0,0,0,1-.64l.15-.2,0-.26a3.44,3.44,0,0,0-.28-1.91,1.46,1.46,0,0,0,.86-1l.13-.37.34-.09.13-.24h.06a3.32,3.32,0,0,0,1.24-.42l.17-.09a1.18,1.18,0,0,0,.31.42l0,0-.22.88a4.2,4.2,0,0,0-.08.47,3,3,0,0,1-.06.32l-.38.53.42.54a1.8,1.8,0,0,0,.19.2l.06.32h0l-.69,1,1.3-.13s0,0,0,0l.13.56a1.14,1.14,0,0,0,.19.4Z"/></clipPath><radialGradient id="radial-gradient-77" cx="75.97" cy="89.78" r="15.96" gradientTransform="matrix(1, 0, 0, 1, 0, 0)" xlink:href="#radial-gradient-3"/><radialGradient id="radial-gradient-78" cx="62.88" cy="89.78" r="14.92" gradientTransform="matrix(1, 0, 0, 1, 0, 0)" xlink:href="#radial-gradient-4"/><radialGradient id="radial-gradient-79" cx="81.1" cy="54.64" r="15.54" gradientTransform="matrix(1, 0, 0, 1, 0, 0)" xlink:href="#radial-gradient-3"/><radialGradient id="radial-gradient-80" cx="90.7" cy="65.08" r="17.05" gradientTransform="matrix(1, 0, 0, 1, 0, 0)" xlink:href="#radial-gradient-4"/><radialGradient id="radial-gradient-81" cx="118.14" cy="71.18" r="17.88" gradientTransform="matrix(1, 0, 0, 1, 0, 0)" xlink:href="#radial-gradient-7"/><radialGradient id="radial-gradient-82" cx="98.24" cy="72.93" r="19.79" gradientTransform="matrix(1, 0, 0, 1, 0, 0)" xlink:href="#radial-gradient-3"/><radialGradient id="radial-gradient-83" cx="138.53" cy="89.65" r="19.54" gradientTransform="matrix(1, 0, 0, 1, 0, 0)" xlink:href="#radial-gradient-3"/><radialGradient id="radial-gradient-84" cx="113.42" cy="89.65" r="21.81" gradientTransform="matrix(1, 0, 0, 1, 0, 0)" xlink:href="#radial-gradient-7"/><radialGradient id="radial-gradient-85" cx="69.77" cy="99.87" r="11.97" gradientTransform="matrix(1, 0, 0, 1, 0, 0)" xlink:href="#radial-gradient-7"/><radialGradient id="radial-gradient-86" cx="85.55" cy="99.87" r="13.24" gradientTransform="matrix(1, 0, 0, 1, 0, 0)" xlink:href="#radial-gradient-3"/><radialGradient id="radial-gradient-87" cx="98" cy="50.18" r="23.16" gradientTransform="matrix(1, 0, 0, 1, 0, 0)" xlink:href="#radial-gradient-12"/><radialGradient id="radial-gradient-88" cx="128.54" cy="50.18" r="25.64" gradientTransform="matrix(1, 0, 0, 1, 0, 0)" xlink:href="#radial-gradient-7"/><radialGradient id="radial-gradient-89" cx="160.9" cy="48.81" r="18.72" gradientTransform="matrix(1, 0, 0, 1, 0, 0)" xlink:href="#radial-gradient-12"/><radialGradient id="radial-gradient-90" cx="73.01" cy="51.1" r="13.75" gradientTransform="matrix(1, 0, 0, 1, 0, 0)" xlink:href="#radial-gradient-3"/><radialGradient id="radial-gradient-91" cx="73.58" cy="51.1" r="13.88" gradientTransform="matrix(1, 0, 0, 1, 0, 0)" xlink:href="#radial-gradient-4"/><radialGradient id="radial-gradient-92" cx="84.17" cy="64.59" r="29.02" gradientTransform="matrix(1, 0, 0, 1, 0, 0)" xlink:href="#radial-gradient-3"/><radialGradient id="radial-gradient-93" cx="93.27" cy="64.59" r="29.2" gradientTransform="matrix(1, 0, 0, 1, 0, 0)" xlink:href="#radial-gradient-7"/><radialGradient id="radial-gradient-94" cx="49.44" cy="94.79" r="15.99" gradientTransform="matrix(1, 0, 0, 1, 0, 0)" xlink:href="#radial-gradient-3"/><radialGradient id="radial-gradient-95" cx="49.44" cy="93.64" r="16.54" gradientTransform="matrix(1, 0, 0, 1, 0, 0)" xlink:href="#radial-gradient-3"/><radialGradient id="radial-gradient-96" cx="103.01" cy="98.49" r="28.23" gradientTransform="matrix(1, 0, 0, 1, 0, 0)" xlink:href="#radial-gradient-12"/><radialGradient id="radial-gradient-97" cx="92.15" cy="98.49" r="29.13" gradientTransform="matrix(1, 0, 0, 1, 0, 0)" xlink:href="#radial-gradient-4"/><radialGradient id="radial-gradient-98" cx="86.5" cy="74.72" r="4.43" gradientTransform="matrix(1, 0, 0, 1, 0, 0)" xlink:href="#radial-gradient-3"/><radialGradient id="radial-gradient-99" cx="91.3" cy="74.72" r="5.41" gradientTransform="matrix(1, 0, 0, 1, 0, 0)" xlink:href="#radial-gradient-3"/><radialGradient id="radial-gradient-100" cx="71.62" cy="70.28" r="5.92" gradientTransform="matrix(1, 0, 0, 1, 0, 0)" xlink:href="#radial-gradient-7"/><radialGradient id="radial-gradient-101" cx="79.18" cy="70.28" r="6.79" gradientTransform="matrix(1, 0, 0, 1, 0, 0)" xlink:href="#radial-gradient-4"/><radialGradient id="radial-gradient-102" cx="62.88" cy="47.72" r="24.99" gradientTransform="matrix(1, 0, 0, 1, 0, 0)" xlink:href="#radial-gradient-7"/><radialGradient id="radial-gradient-103" cx="65.63" cy="47.72" r="24.31" gradientTransform="matrix(1, 0, 0, 1, 0, 0)" xlink:href="#radial-gradient-3"/><radialGradient id="radial-gradient-104" cx="128.48" cy="38.36" r="34.92" gradientTransform="matrix(1, 0, 0, 1, 0, 0)" xlink:href="#radial-gradient-7"/><radialGradient id="radial-gradient-105" cx="147.11" cy="38.36" r="35.17" gradientTransform="matrix(1, 0, 0, 1, 0, 0)" xlink:href="#radial-gradient-3"/><radialGradient id="radial-gradient-106" cx="156.79" cy="81.4" r="31.76" gradientTransform="matrix(1, 0, 0, 1, 0, 0)" xlink:href="#radial-gradient-4"/><radialGradient id="radial-gradient-107" cx="349.07" cy="242.77" r="35.6" gradientTransform="translate(398.65 293.97) rotate(180)" xlink:href="#radial-gradient-3"/><radialGradient id="radial-gradient-108" cx="270.59" cy="249.35" r="11.2" gradientTransform="translate(398.65 293.97) rotate(180)" xlink:href="#radial-gradient-3"/><radialGradient id="radial-gradient-109" cx="261.4" cy="249.35" r="10.47" gradientTransform="translate(398.65 293.97) rotate(180)" xlink:href="#radial-gradient-4"/><radialGradient id="radial-gradient-110" cx="356.28" cy="242.77" r="14.84" gradientTransform="translate(398.65 293.97) rotate(180)" xlink:href="#radial-gradient-3"/><radialGradient id="radial-gradient-111" cx="339.66" cy="242.77" r="14.46" gradientTransform="translate(398.65 293.97) rotate(180)" xlink:href="#radial-gradient-3"/><radialGradient id="radial-gradient-112" cx="274.19" cy="224.69" r="10.9" gradientTransform="translate(398.65 293.97) rotate(180)" xlink:href="#radial-gradient-3"/><radialGradient id="radial-gradient-113" cx="280.93" cy="232.01" r="11.97" gradientTransform="translate(398.65 293.97) rotate(180)" xlink:href="#radial-gradient-4"/><radialGradient id="radial-gradient-114" cx="300.19" cy="236.29" r="12.55" gradientTransform="translate(398.65 293.97) rotate(180)" xlink:href="#radial-gradient-7"/><radialGradient id="radial-gradient-115" cx="286.22" cy="237.52" r="13.89" gradientTransform="translate(398.65 293.97) rotate(180)" xlink:href="#radial-gradient-3"/><radialGradient id="radial-gradient-116" cx="314.5" cy="249.26" r="13.72" gradientTransform="translate(398.65 293.97) rotate(180)" xlink:href="#radial-gradient-3"/><radialGradient id="radial-gradient-117" cx="296.87" cy="249.26" r="15.31" gradientTransform="translate(398.65 293.97) rotate(180)" xlink:href="#radial-gradient-7"/><radialGradient id="radial-gradient-118" cx="342.36" cy="213.08" r="11.24" gradientTransform="translate(398.65 293.97) rotate(180)" xlink:href="#radial-gradient-3"/><radialGradient id="radial-gradient-119" cx="357.19" cy="213.08" r="12.44" gradientTransform="translate(398.65 293.97) rotate(180)" xlink:href="#radial-gradient-7"/><radialGradient id="radial-gradient-120" cx="266.24" cy="256.43" r="8.4" gradientTransform="translate(398.65 293.97) rotate(180)" xlink:href="#radial-gradient-7"/><radialGradient id="radial-gradient-121" cx="277.32" cy="256.43" r="9.3" gradientTransform="translate(398.65 293.97) rotate(180)" xlink:href="#radial-gradient-3"/><radialGradient id="radial-gradient-122" cx="286.05" cy="221.55" r="16.26" gradientTransform="translate(398.65 293.97) rotate(180)" xlink:href="#radial-gradient-12"/><radialGradient id="radial-gradient-123" cx="307.49" cy="221.55" r="17.99" gradientTransform="translate(398.65 293.97) rotate(180)" xlink:href="#radial-gradient-7"/><radialGradient id="radial-gradient-124" cx="358.69" cy="237.9" r="10.75" gradientTransform="translate(398.65 293.97) rotate(180)" xlink:href="#radial-gradient-12"/><radialGradient id="radial-gradient-125" cx="346.23" cy="238.58" r="11.97" gradientTransform="translate(398.65 293.97) rotate(180)" xlink:href="#radial-gradient-3"/><radialGradient id="radial-gradient-126" cx="330.2" cy="220.59" r="13.14" gradientTransform="translate(398.65 293.97) rotate(180)" xlink:href="#radial-gradient-12"/><radialGradient id="radial-gradient-127" cx="347.52" cy="220.59" r="14.54" gradientTransform="translate(398.65 293.97) rotate(180)" xlink:href="#radial-gradient-7"/><radialGradient id="radial-gradient-128" cx="268.51" cy="222.2" r="9.65" gradientTransform="translate(398.65 293.97) rotate(180)" xlink:href="#radial-gradient-3"/><radialGradient id="radial-gradient-129" cx="268.91" cy="222.2" r="9.74" gradientTransform="translate(398.65 293.97) rotate(180)" xlink:href="#radial-gradient-4"/><radialGradient id="radial-gradient-130" cx="276.34" cy="231.67" r="20.37" gradientTransform="translate(398.65 293.97) rotate(180)" xlink:href="#radial-gradient-3"/><radialGradient id="radial-gradient-131" cx="282.73" cy="231.67" r="20.5" gradientTransform="translate(398.65 293.97) rotate(180)" xlink:href="#radial-gradient-7"/><radialGradient id="radial-gradient-132" cx="251.97" cy="248.14" r="11.23" gradientTransform="translate(398.65 293.97) rotate(180)" xlink:href="#radial-gradient-3"/><radialGradient id="radial-gradient-133" cx="251.97" cy="247.33" r="11.61" gradientTransform="translate(398.65 293.97) rotate(180)" xlink:href="#radial-gradient-3"/><radialGradient id="radial-gradient-134" cx="290.57" cy="259.86" r="23.01" gradientTransform="translate(398.65 293.97) rotate(180)" xlink:href="#radial-gradient-12"/><radialGradient id="radial-gradient-135" cx="281.72" cy="259.86" r="23.75" gradientTransform="translate(398.65 293.97) rotate(180)" xlink:href="#radial-gradient-4"/><radialGradient id="radial-gradient-136" cx="328.79" cy="221.07" r="4.81" gradientTransform="translate(398.65 293.97) rotate(180)" xlink:href="#radial-gradient-3"/><radialGradient id="radial-gradient-137" cx="334.93" cy="221.07" r="5.52" gradientTransform="translate(398.65 293.97) rotate(180)" xlink:href="#radial-gradient-7"/><radialGradient id="radial-gradient-138" cx="277.98" cy="238.78" r="3.11" gradientTransform="translate(398.65 293.97) rotate(180)" xlink:href="#radial-gradient-3"/><radialGradient id="radial-gradient-139" cx="281.35" cy="238.78" r="3.8" gradientTransform="translate(398.65 293.97) rotate(180)" xlink:href="#radial-gradient-3"/><radialGradient id="radial-gradient-140" cx="348.53" cy="238.61" r="7.04" gradientTransform="translate(398.65 293.97) rotate(180)" xlink:href="#radial-gradient-4"/><radialGradient id="radial-gradient-141" cx="340.06" cy="225.78" r="8.75" gradientTransform="translate(398.65 293.97) rotate(180)" xlink:href="#radial-gradient-3"/><radialGradient id="radial-gradient-142" cx="351.23" cy="225.78" r="10.04" gradientTransform="translate(398.65 293.97) rotate(180)" xlink:href="#radial-gradient-4"/><radialGradient id="radial-gradient-143" cx="267.54" cy="235.66" r="4.16" gradientTransform="translate(398.65 293.97) rotate(180)" xlink:href="#radial-gradient-7"/><radialGradient id="radial-gradient-144" cx="272.84" cy="235.66" r="4.77" gradientTransform="translate(398.65 293.97) rotate(180)" xlink:href="#radial-gradient-4"/><radialGradient id="radial-gradient-145" cx="261.4" cy="219.83" r="17.54" gradientTransform="translate(398.65 293.97) rotate(180)" xlink:href="#radial-gradient-7"/><radialGradient id="radial-gradient-146" cx="263.34" cy="219.83" r="17.07" gradientTransform="translate(398.65 293.97) rotate(180)" xlink:href="#radial-gradient-3"/><radialGradient id="radial-gradient-147" cx="307.45" cy="213.26" r="24.5" gradientTransform="translate(398.65 293.97) rotate(180)" xlink:href="#radial-gradient-7"/><radialGradient id="radial-gradient-148" cx="320.52" cy="213.26" r="24.68" gradientTransform="translate(398.65 293.97) rotate(180)" xlink:href="#radial-gradient-3"/><radialGradient id="radial-gradient-149" cx="333.42" cy="249.35" r="25.54" gradientTransform="translate(398.65 293.97) rotate(180)" xlink:href="#radial-gradient-7"/><radialGradient id="radial-gradient-150" cx="328.4" cy="249.35" r="26.91" gradientTransform="translate(398.65 293.97) rotate(180)" xlink:href="#radial-gradient-4"/><radialGradient id="radial-gradient-151" cx="391" cy="216.55" r="34.62" gradientTransform="translate(398.65 293.97) rotate(180)" xlink:href="#radial-gradient-12"/><radialGradient id="radial-gradient-152" cx="391" cy="231.42" r="34.56" gradientTransform="translate(398.65 293.97) rotate(180)" xlink:href="#radial-gradient-3"/><linearGradient id="linear-gradient-3" x1="-10.09" y1="67.7" x2="168.86" y2="67.7" gradientTransform="matrix(1, 0, 0, 1, 0, 0)" xlink:href="#linear-gradient"/><clipPath id="clip-path-4" transform="translate(-155.97 -157.5)"><path class="cls-3" d="M277,245.57l3.26-6-4.52,4.72a1.16,1.16,0,0,0-.61.28l-.18,0-.15,0a2.8,2.8,0,0,0-1.59-1.07v-.11l-.58-.11-1-.41V243l-.2-.06-.79-.26-.13.31-.05-.36-.73-.05-.15,0a1.36,1.36,0,0,0-.57-.06l-1.2-.91.45,1.22-.71.5.62.75,0,.06a2.1,2.1,0,0,0,.31.34,1.09,1.09,0,0,0,.55.77l.87.46.06-.14c.13.06.26.1.4.15l.42.17a.28.28,0,0,1,0,.08l-.19,1.12-.14,0a2.23,2.23,0,0,1-.45-.13,4.73,4.73,0,0,0-.56-.17l-.52-.11-.05-.52-.39.58a1.22,1.22,0,0,0-.43.27l-1.06.7a1.77,1.77,0,0,0-1.48.95H265v.21l-.43.1,0,.66c0,.16,0,.54-1.34.6h-.2l-.18.09a3,3,0,0,0-1.53,1.83,1.8,1.8,0,0,0,.09,1.17,3.38,3.38,0,0,0,.38,1.76c.29.7.37,1,.22,1.23l-.32.51.35.49a1.9,1.9,0,0,0,1.54.78l.4,0,.29-.29c.12-.12.46-.34,1.4-.31h.57l.29-.58h0a1.08,1.08,0,0,1,.7-.15l.43.06.32-.31a.35.35,0,0,1,.22-.05,3.07,3.07,0,0,1,1,.23c.14.24.27.48.38.72l.94,2.08.41-1.19H271a1.39,1.39,0,0,0,.15.48,1.47,1.47,0,0,0,1.08.79l.74,1.2a.75.75,0,0,1,0,.16,1.51,1.51,0,0,0,.87,1.26l.21.09.23,0a1.48,1.48,0,0,0,1-.6,1.88,1.88,0,0,0,.4-1.41l-.09-.7-.46,0a.83.83,0,0,1,.36-.13l.59,0,.19-.55a2.93,2.93,0,0,0,.18-.92,2.62,2.62,0,0,0,.36-.81,4,4,0,0,0,.72-3.23,1.21,1.21,0,0,1,0-.18,2,2,0,0,0,0-.72,2.11,2.11,0,0,0-.69-1.06l-.09-.09,0-.77-.58,0a2.4,2.4,0,0,0-1.2-1.12c0-.09-.05-.19-.07-.29a4.15,4.15,0,0,0-.54-1.36l-.31-.46-.12,0a4,4,0,0,0-.16-.53l.07-.26.1.09a2,2,0,0,0,1.46.76l.25,0,1.15-.19-.46-1.06a1.82,1.82,0,0,0-.19-.31A1.19,1.19,0,0,0,277,245.57Zm-5.26,1.36.11.07,0,0,0,.11a4,4,0,0,0-.19,1.31c0,.1,0,.2,0,.28a1.71,1.71,0,0,0-.57-.3,1.66,1.66,0,0,0,0-.71l-.11-.63-.16,0Z"/></clipPath><radialGradient id="radial-gradient-153" cx="279.94" cy="251.26" r="16.11" gradientTransform="translate(-189.78 -106.12) rotate(-8.5)" xlink:href="#radial-gradient-3"/><radialGradient id="radial-gradient-154" cx="126.72" cy="100.22" r="6.71" gradientTransform="matrix(1, 0, 0, 1, 0, 0)" xlink:href="#radial-gradient-3"/><radialGradient id="radial-gradient-155" cx="119.2" cy="100.22" r="6.54" gradientTransform="matrix(1, 0, 0, 1, 0, 0)" xlink:href="#radial-gradient-3"/><radialGradient id="radial-gradient-156" cx="101.34" cy="97.29" r="5.68" gradientTransform="matrix(1, 0, 0, 1, 0, 0)" xlink:href="#radial-gradient-7"/><radialGradient id="radial-gradient-157" cx="107.82" cy="103.15" r="6.2" gradientTransform="matrix(1, 0, 0, 1, 0, 0)" xlink:href="#radial-gradient-3"/><radialGradient id="radial-gradient-158" cx="99.85" cy="103.15" r="6.92" gradientTransform="matrix(1, 0, 0, 1, 0, 0)" xlink:href="#radial-gradient-7"/><radialGradient id="radial-gradient-159" cx="120.42" cy="86.78" r="5.09" gradientTransform="matrix(1, 0, 0, 1, 0, 0)" xlink:href="#radial-gradient-3"/><radialGradient id="radial-gradient-160" cx="127.13" cy="86.78" r="5.63" gradientTransform="matrix(1, 0, 0, 1, 0, 0)" xlink:href="#radial-gradient-7"/><radialGradient id="radial-gradient-161" cx="104.65" cy="90.62" r="8.14" gradientTransform="matrix(1, 0, 0, 1, 0, 0)" xlink:href="#radial-gradient-7"/><radialGradient id="radial-gradient-162" cx="122.18" cy="98.32" r="5.42" gradientTransform="matrix(1, 0, 0, 1, 0, 0)" xlink:href="#radial-gradient-3"/><radialGradient id="radial-gradient-163" cx="114.92" cy="90.18" r="5.94" gradientTransform="matrix(1, 0, 0, 1, 0, 0)" xlink:href="#radial-gradient-12"/><radialGradient id="radial-gradient-164" cx="122.76" cy="90.18" r="6.58" gradientTransform="matrix(1, 0, 0, 1, 0, 0)" xlink:href="#radial-gradient-7"/><radialGradient id="radial-gradient-165" cx="112.38" cy="86.61" r="2.18" gradientTransform="matrix(1, 0, 0, 1, 0, 0)" xlink:href="#radial-gradient-3"/><radialGradient id="radial-gradient-166" cx="115.16" cy="86.61" r="2.5" gradientTransform="matrix(1, 0, 0, 1, 0, 0)" xlink:href="#radial-gradient-7"/><radialGradient id="radial-gradient-167" cx="123.21" cy="98.33" r="3.19" gradientTransform="matrix(1, 0, 0, 1, 0, 0)" xlink:href="#radial-gradient-4"/><radialGradient id="radial-gradient-168" cx="119.38" cy="92.53" r="3.96" gradientTransform="matrix(1, 0, 0, 1, 0, 0)" xlink:href="#radial-gradient-3"/><radialGradient id="radial-gradient-169" cx="124.43" cy="92.53" r="4.54" gradientTransform="matrix(1, 0, 0, 1, 0, 0)" xlink:href="#radial-gradient-4"/><radialGradient id="radial-gradient-170" cx="104.63" cy="86.87" r="11.09" gradientTransform="matrix(1, 0, 0, 1, 0, 0)" xlink:href="#radial-gradient-7"/><radialGradient id="radial-gradient-171" cx="110.54" cy="86.87" r="11.17" gradientTransform="matrix(1, 0, 0, 1, 0, 0)" xlink:href="#radial-gradient-3"/><radialGradient id="radial-gradient-172" cx="115.5" cy="100.53" r="9.57" gradientTransform="matrix(1, 0, 0, 1, 0, 0)" xlink:href="#radial-gradient-7"/><radialGradient id="radial-gradient-173" cx="113.62" cy="100.53" r="10.08" gradientTransform="matrix(1, 0, 0, 1, 0, 0)" xlink:href="#radial-gradient-4"/><radialGradient id="radial-gradient-174" cx="142.43" cy="88.35" r="15.66" gradientTransform="matrix(1, 0, 0, 1, 0, 0)" xlink:href="#radial-gradient-12"/><radialGradient id="radial-gradient-175" cx="142.43" cy="95.08" r="15.63" gradientTransform="matrix(1, 0, 0, 1, 0, 0)" xlink:href="#radial-gradient-3"/><radialGradient id="radial-gradient-176" cx="294.16" cy="205.12" r="3.56" gradientTransform="translate(398.65 293.97) rotate(180)" xlink:href="#radial-gradient-3"/><radialGradient id="radial-gradient-177" cx="291.24" cy="205.12" r="3.32" gradientTransform="translate(398.65 293.97) rotate(180)" xlink:href="#radial-gradient-4"/><radialGradient id="radial-gradient-178" cx="295.3" cy="197.29" r="3.46" gradientTransform="translate(398.65 293.97) rotate(180)" xlink:href="#radial-gradient-3"/><radialGradient id="radial-gradient-179" cx="299.12" cy="201.36" r="4.41" gradientTransform="translate(398.65 293.97) rotate(180)" xlink:href="#radial-gradient-3"/><radialGradient id="radial-gradient-180" cx="292.77" cy="207.36" r="2.67" gradientTransform="translate(398.65 293.97) rotate(180)" xlink:href="#radial-gradient-7"/><radialGradient id="radial-gradient-181" cx="296.29" cy="207.36" r="2.95" gradientTransform="translate(398.65 293.97) rotate(180)" xlink:href="#radial-gradient-3"/><radialGradient id="radial-gradient-182" cx="299.06" cy="196.29" r="5.16" gradientTransform="translate(398.65 293.97) rotate(180)" xlink:href="#radial-gradient-12"/><radialGradient id="radial-gradient-183" cx="293.5" cy="196.5" r="3.06" gradientTransform="translate(398.65 293.97) rotate(180)" xlink:href="#radial-gradient-3"/><radialGradient id="radial-gradient-184" cx="293.62" cy="196.5" r="3.09" gradientTransform="translate(398.65 293.97) rotate(180)" xlink:href="#radial-gradient-4"/><radialGradient id="radial-gradient-185" cx="295.98" cy="199.5" r="6.47" gradientTransform="translate(398.65 293.97) rotate(180)" xlink:href="#radial-gradient-3"/><radialGradient id="radial-gradient-186" cx="288.24" cy="204.73" r="3.56" gradientTransform="translate(398.65 293.97) rotate(180)" xlink:href="#radial-gradient-3"/><radialGradient id="radial-gradient-187" cx="288.24" cy="204.47" r="3.68" gradientTransform="translate(398.65 293.97) rotate(180)" xlink:href="#radial-gradient-3"/><radialGradient id="radial-gradient-188" cx="297.69" cy="208.45" r="7.54" gradientTransform="translate(398.65 293.97) rotate(180)" xlink:href="#radial-gradient-4"/><radialGradient id="radial-gradient-189" cx="231.85" cy="191.01" r="7.31" gradientTransform="translate(-69.19 -134.81) rotate(12.69)" xlink:href="#radial-gradient-12"/><radialGradient id="radial-gradient-190" cx="229.04" cy="191.01" r="7.54" gradientTransform="translate(-69.19 -134.81) rotate(12.69)" xlink:href="#radial-gradient-4"/><radialGradient id="radial-gradient-191" cx="293.19" cy="200.77" r="1.32" gradientTransform="translate(398.65 293.97) rotate(180)" xlink:href="#radial-gradient-7"/><radialGradient id="radial-gradient-192" cx="294.87" cy="200.77" r="1.51" gradientTransform="translate(398.65 293.97) rotate(180)" xlink:href="#radial-gradient-4"/><radialGradient id="radial-gradient-193" cx="291.24" cy="195.74" r="5.57" gradientTransform="translate(398.65 293.97) rotate(180)" xlink:href="#radial-gradient-7"/><radialGradient id="radial-gradient-194" cx="291.85" cy="195.74" r="5.42" gradientTransform="translate(398.65 293.97) rotate(180)" xlink:href="#radial-gradient-3"/><linearGradient id="linear-gradient-4" x1="63.89" y1="94.83" x2="153.66" y2="94.83" gradientTransform="matrix(1, 0, 0, 1, 0, 0)" xlink:href="#linear-gradient"/></defs><title>105</title><g class="cls-4"><g id="Layer_1" data-name="Layer 1"><rect class="cls-5" x="1.53" width="135" height="135"/><g class="cls-6"><path class="cls-7" d="M281.77,278.9c0,3.43-24.65,6.21-55.07,6.21s-55.07-2.78-55.07-6.21,24.66-6.21,55.07-6.21S281.77,275.47,281.77,278.9Z" transform="translate(-155.97 -157.5)"/></g><g class="cls-8"><g class="cls-9"><g class="cls-10"><polygon class="cls-11" points="63.45 65.27 49.84 48.12 38.5 59.94 63.45 67.48 63.45 65.27"/><polygon class="cls-12" points="63.45 67.48 38.5 59.94 43.56 75.98 63.45 68.98 63.45 67.48"/></g><g class="cls-13"><polygon class="cls-14" points="13.39 65.14 17.47 43.46 38.18 55.24 13.39 65.14"/><polygon class="cls-15" points="38.18 55.24 17.47 43.46 49.75 38.96 38.18 55.24"/></g><g class="cls-16"><polygon class="cls-17" points="28.92 34.18 29.58 41.81 37.61 34.18 28.92 34.18"/><polygon class="cls-18" points="37.61 34.18 29.58 41.81 43.61 59.94 47.66 34.18 37.61 34.18"/></g><g class="cls-19"><polygon class="cls-20" points="43.48 34.18 52.58 49.76 57.16 34.18 43.48 34.18"/></g><g class="cls-21"><polygon class="cls-22" points="63.45 55.17 52.13 62.79 63.45 71.35 63.45 55.17"/><polygon class="cls-23" points="63.45 45.49 60.04 39.13 52.13 62.79 63.45 55.17 63.45 45.49"/></g><g class="cls-24"><polygon class="cls-25" points="18.87 34.18 7.8 41.63 33.87 61.34 36.08 34.18 18.87 34.18"/><polygon class="cls-26" points="10.29 34.18 7.8 41.63 18.87 34.18 10.29 34.18"/></g><g class="cls-27"><polygon class="cls-28" points="35.08 62.23 9.21 64.68 37.06 56.05 35.08 62.23"/><polygon class="cls-29" points="37.06 56.05 9.21 64.68 22.75 55.19 37.06 56.05"/></g><g class="cls-30"><polygon class="cls-31" points="56.82 57.88 3.05 52 63.45 46.13 56.82 57.88"/><polygon class="cls-32" points="63.45 46.13 3.05 52 34.64 38.35 63.45 46.13"/></g><g class="cls-33"><polygon class="cls-34" points="63.45 83.48 56.56 68.66 44.87 65.14 63.45 86.87 63.45 83.48"/><polygon class="cls-35" points="63.45 86.87 44.87 65.14 43.14 74.96 63.45 88.59 63.45 86.87"/></g><g class="cls-36"><polygon class="cls-37" points="63.45 34.18 41.6 34.18 29.57 44.95 63.45 39.52 63.45 34.18"/><polygon class="cls-38" points="63.45 39.52 29.57 44.95 42.56 56.41 63.45 46.8 63.45 39.52"/></g><g class="cls-39"><polygon class="cls-40" points="43.36 53.33 37.29 51.16 44.39 47.17 43.36 53.33"/><polygon class="cls-41" points="44.39 47.17 37.29 51.16 41.76 42.15 44.39 47.17"/></g><g class="cls-13"><polygon class="cls-42" points="39.68 65.18 32.5 60.91 42.53 57.62 39.68 65.18"/><polygon class="cls-43" points="42.53 57.62 32.5 60.91 40.43 50.57 42.53 57.62"/></g><g class="cls-10"><polygon class="cls-44" points="0 59.16 0 60.39 27.46 78.03 45.1 73.9 0 59.16"/><polygon class="cls-45" points="0 59.16 45.1 73.9 39.22 60.43 0 58.12 0 59.16"/></g><g class="cls-46"><polygon class="cls-47" points="0 83.02 0 86.63 37.21 98.43 60.05 86.14 0 83.02"/><polygon class="cls-48" points="0 83.02 60.05 86.14 46.89 69.72 0 79.47 0 83.02"/></g><g class="cls-49"><polygon class="cls-50" points="52.12 90.59 39.28 109.36 39.12 84.08 52.12 90.59"/><polygon class="cls-51" points="39.12 84.08 39.28 109.36 26.83 92.58 39.12 84.08"/></g><g class="cls-49"><polygon class="cls-52" points="28.43 91.23 9.6 75.43 36.81 77.93 28.43 91.23"/><polygon class="cls-53" points="36.81 77.93 9.6 75.43 28.97 63.82 36.81 77.93"/></g><g class="cls-54"><polygon class="cls-55" points="30.3 34.18 20.18 43.79 35.95 52 34.41 34.18 30.3 34.18"/><polygon class="cls-56" points="21.69 34.18 20.18 43.79 30.3 34.18 21.69 34.18"/></g><g class="cls-57"><polygon class="cls-58" points="25.81 63.8 9.84 52.62 26.86 40.22 25.81 63.8"/><polygon class="cls-59" points="15.26 34.18 9.84 52.62 26.86 40.22 23.33 34.18 15.26 34.18"/></g><g class="cls-60"><polygon class="cls-61" points="39.92 63.33 52.57 72.9 38.36 82.47 39.92 63.33"/><polygon class="cls-62" points="38.36 82.47 52.57 72.9 45.14 95.13 38.36 82.47"/></g><g class="cls-19"><polygon class="cls-63" points="29.68 34.18 28.84 44.52 44.2 34.18 29.68 34.18"/><polygon class="cls-64" points="44.2 34.18 28.84 44.52 38.64 62.83 48.22 34.18 44.2 34.18"/></g><g class="cls-65"><polygon class="cls-66" points="33.53 94.38 20.19 86.9 32.51 75.9 33.53 94.38"/><polygon class="cls-67" points="32.51 75.9 20.19 86.9 24.38 64.7 32.51 75.9"/></g><g class="cls-68"><polygon class="cls-69" points="33.35 52.59 48.14 63.78 31.53 74.96 33.35 52.59"/><polygon class="cls-70" points="31.53 74.96 48.14 63.78 39.45 89.75 31.53 74.96"/></g><g class="cls-71"><polygon class="cls-72" points="0 34.18 0 37.43 21.23 39.84 27.55 34.18 0 34.18"/></g><g class="cls-21"><polygon class="cls-73" points="32.66 101.9 8.27 106.26 39.11 91.4 32.66 101.9"/><polygon class="cls-74" points="39.11 91.4 8.27 106.26 29.97 87.18 39.11 91.4"/></g><g class="cls-75"><polygon class="cls-76" points="63.45 98.98 55.14 85.26 39.48 82.36 63.45 104.88 63.45 98.98"/><polygon class="cls-77" points="63.45 104.88 39.48 82.36 38.63 95.35 63.45 108.33 63.45 104.88"/></g><g class="cls-24"><polygon class="cls-78" points="37.71 59.65 43.55 63.13 35.4 65.8 37.71 59.65"/><polygon class="cls-79" points="35.4 65.8 43.55 63.13 37.1 71.53 35.4 65.8"/></g><g class="cls-80"><polygon class="cls-81" points="24.43 86.97 19.93 79.23 31.03 81.37 24.43 86.97"/><polygon class="cls-82" points="31.03 81.37 19.93 79.23 32.73 73.68 31.03 81.37"/></g><g class="cls-65"><polygon class="cls-83" points="32.74 65.59 43.36 71.91 28.54 76.76 32.74 65.59"/><polygon class="cls-84" points="28.54 76.76 43.36 71.91 31.63 87.18 28.54 76.76"/></g><g class="cls-85"><polygon class="cls-86" points="63.45 48.98 35.02 41.96 19.79 51.49 63.45 50.91 63.45 48.98"/><polygon class="cls-87" points="63.45 50.91 19.79 51.49 29.62 62.23 63.45 52.87 63.45 50.91"/></g><g class="cls-88"><polygon class="cls-89" points="0 72.55 0 74.5 31.73 71.98 43.85 57.31 0 72.55"/><polygon class="cls-90" points="0 72.55 43.85 57.31 30.37 49.79 0 70.19 0 72.55"/></g><g class="cls-91"><polygon class="cls-92" points="43.95 117.42 51.26 96.08 39.83 73.63 36.55 117.42 43.95 117.42"/><polygon class="cls-93" points="36.55 117.42 39.83 73.63 23.6 86.04 29.38 117.42 36.55 117.42"/></g><polygon class="cls-94" points="63.45 98.98 56.74 87.91 59.9 86.22 63.45 88.59 63.45 83.48 57.66 71.02 61.31 69.74 63.45 71.35 63.45 34.18 0 34.18 0 37.43 8.87 38.43 7.8 41.63 12.11 44.89 11.03 48.55 3.05 52 10.05 52.77 15.06 56.27 14.55 58.97 0 58.12 0 60.39 7.45 65.18 0 70.19 0 74.5 12.86 73.48 9.6 75.43 11.56 77.07 0 79.47 0 86.63 22.48 93.76 8.27 106.26 26.72 102.96 29.38 117.42 43.95 117.42 49.55 101.07 63.45 108.33 63.45 98.98"/></g></g><g class="cls-95"><g class="cls-9"><g class="cls-24"><polygon class="cls-96" points="54.73 57.55 53.82 56.2 53.82 57.55 54.73 57.55"/><polygon class="cls-97" points="61.47 57.55 61.47 50.05 53.82 50.05 53.82 56.2 54.73 57.55 61.47 57.55"/></g><g class="cls-98"><polygon class="cls-99" points="61.47 57.55 61.47 50.05 60.78 50.05 58.93 57.55 61.47 57.55"/></g><g class="cls-85"><polygon class="cls-100" points="61.47 50.87 57.83 53.76 61.47 57.24 61.47 50.87"/></g><g class="cls-101"><polygon class="cls-102" points="58.17 57.55 53.82 54.46 53.82 57.55 58.17 57.55"/></g><g class="cls-54"><polygon class="cls-103" points="61.47 57.55 61.47 56.68 53.82 55.48 53.82 57.55 61.47 57.55"/></g><g class="cls-57"><polygon class="cls-104" points="53.82 50.84 53.82 55.14 58.72 52.28 53.82 50.84"/></g><g class="cls-105"><polygon class="cls-106" points="58.38 50.05 61.47 51.09 61.47 50.05 58.38 50.05"/></g><g class="cls-107"><polygon class="cls-108" points="61.47 57.55 61.47 50.05 57.11 50.05 57.84 57.55 61.47 57.55"/><polygon class="cls-109" points="57.84 57.55 57.11 50.05 55.77 50.05 53.82 57.3 53.82 57.55 57.84 57.55"/></g><g class="cls-71"><polygon class="cls-110" points="55.01 57.55 53.82 50.1 53.82 57.55 55.01 57.55"/><polygon class="cls-111" points="61.47 57.55 61.47 52.47 60.36 50.05 53.82 50.05 53.82 50.1 55.01 57.55 61.47 57.55"/></g><g class="cls-68"><polygon class="cls-112" points="60.53 57.55 60.64 57.25 57.32 56.69 57.81 57.55 60.53 57.55"/><polygon class="cls-113" points="57.81 57.55 57.32 56.69 55.68 57.55 57.81 57.55"/></g><rect class="cls-114" x="53.82" y="50.05" width="7.65" height="7.5"/></g></g><g class="cls-115"><g class="cls-9"><g class="cls-10"><polygon class="cls-116" points="69.94 102.12 89.35 86.72 73.58 71.6 64.35 102.12 69.94 102.12"/><polygon class="cls-117" points="64.35 102.12 73.58 71.6 52.18 78.35 60.54 102.12 64.35 102.12"/></g><g class="cls-13"><polygon class="cls-118" points="66.64 38.1 95.56 43.55 79.84 71.18 66.64 38.1"/><polygon class="cls-119" points="79.84 71.18 95.56 43.55 101.56 86.61 79.84 71.18"/></g><g class="cls-16"><polygon class="cls-120" points="138.51 56.2 122.89 86.16 97.76 59.7 138.51 56.2"/><polygon class="cls-121" points="97.76 59.7 122.89 86.16 73.58 78.42 97.76 59.7"/></g><g class="cls-19"><polygon class="cls-122" points="141.74 102.12 141.74 74.61 116.12 73.47 136.99 102.12 141.74 102.12"/><polygon class="cls-123" points="136.99 102.12 116.12 73.47 87.16 90.38 127.1 102.12 136.99 102.12"/></g><g class="cls-21"><polygon class="cls-124" points="78.08 102.12 69.77 89.78 60.44 102.12 78.08 102.12"/><polygon class="cls-125" points="97.99 102.12 101.33 100.34 69.77 89.78 78.08 102.12 97.99 102.12"/></g><g class="cls-24"><polygon class="cls-126" points="96.69 32.38 71.7 65.42 124.3 69.71 99.17 32.38 96.69 32.38"/><polygon class="cls-127" points="99.17 32.38 124.3 69.71 141.74 60.37 141.74 45.28 103.18 32.38 99.17 32.38"/></g><g class="cls-128"><polygon class="cls-129" points="141.74 58.34 139.64 61.13 141.74 61.3 141.74 58.34"/></g><g class="cls-27"><polygon class="cls-130" points="70.52 67.03 67.25 32.53 78.76 69.68 70.52 67.03"/><polygon class="cls-131" points="78.76 69.68 67.25 32.53 79.91 50.59 78.76 69.68"/></g><g class="cls-30"><polygon class="cls-132" points="91.74 102.12 84.95 32.38 83.28 32.38 76.33 96.04 87.12 102.12 91.74 102.12"/><polygon class="cls-133" points="92.75 102.12 102.38 66.45 87.65 32.38 84.95 32.38 91.74 102.12 92.75 102.12"/></g><g class="cls-33"><polygon class="cls-134" points="51.3 93.21 51.3 100.64 61.95 95.69 66.64 80.1 51.3 93.21"/><polygon class="cls-135" points="51.3 93.21 66.64 80.1 53.53 77.79 51.3 81.12 51.3 93.21"/></g><g class="cls-36"><polygon class="cls-136" points="110.02 102.12 112.44 80.77 93.58 59.69 100.38 102.12 110.02 102.12"/><polygon class="cls-137" points="100.38 102.12 93.58 59.69 78.29 77.02 89.84 102.12 100.38 102.12"/></g><g class="cls-39"><polygon class="cls-138" points="82.4 78.09 85.29 69.98 90.61 79.46 82.4 78.09"/><polygon class="cls-139" points="90.61 79.46 85.29 69.98 97.31 75.94 90.61 79.46"/></g><g class="cls-13"><polygon class="cls-140" points="66.58 73.17 72.29 63.59 76.67 76.97 66.58 73.17"/><polygon class="cls-141" points="76.67 76.97 72.29 63.59 86.07 74.17 76.67 76.97"/></g><g class="cls-10"><polygon class="cls-142" points="65.18 32.38 51.3 53.98 51.3 64.79 54.95 80.41 70.65 32.38 65.18 32.38"/><polygon class="cls-143" points="70.65 32.38 54.95 80.41 72.92 72.56 75.29 32.38 70.65 32.38"/></g><g class="cls-98"><polygon class="cls-144" points="125.75 32.38 119.43 57.96 137.53 86.9 136.81 32.38 125.75 32.38"/><polygon class="cls-145" points="136.81 32.38 137.53 86.9 141.74 83.05 141.74 32.38 136.81 32.38"/></g><g class="cls-146"><polygon class="cls-147" points="141.74 53.65 136.88 62.37 141.74 69.6 141.74 53.65"/></g><g class="cls-46"><polygon class="cls-148" points="51.3 38.42 51.3 90.19 60.53 82.79 51.3 38.42"/></g><g class="cls-85"><polygon class="cls-149" points="136.8 32.38 118.67 46.77 129.74 57.38 137.3 32.38 136.8 32.38"/><polygon class="cls-150" points="137.3 32.38 129.74 57.38 141.74 53.6 141.74 44.07 137.63 32.38 137.3 32.38"/></g><g class="cls-49"><polygon class="cls-151" points="51.3 34.97 51.3 50.58 52.91 33.05 51.3 34.97"/><polygon class="cls-152" points="51.3 68.39 68.4 58.88 52.91 33.05 51.3 50.58 51.3 68.39"/></g><g class="cls-101"><polygon class="cls-153" points="134.61 80.89 114.31 77.07 125.34 57.68 134.61 80.89"/><polygon class="cls-154" points="125.34 57.68 114.31 77.07 110.1 46.85 125.34 57.68"/></g><g class="cls-54"><polygon class="cls-155" points="84.17 68.19 95.13 47.16 112.76 65.73 84.17 68.19"/><polygon class="cls-156" points="112.76 65.73 95.13 47.16 129.74 52.59 112.76 65.73"/></g><g class="cls-57"><polygon class="cls-157" points="68.43 54.67 83.34 33.36 99.88 56.07 68.43 54.67"/><polygon class="cls-158" points="99.88 56.07 83.34 33.36 120.21 44.2 99.88 56.07"/></g><g class="cls-60"><polygon class="cls-159" points="51.3 72.05 51.3 82.96 56.29 90.38 69.05 73.49 51.3 72.05"/><polygon class="cls-160" points="51.3 82.96 51.3 88.71 56.29 90.38 51.3 82.96"/></g><g class="cls-105"><polygon class="cls-161" points="124.17 32.38 132.41 44.62 141.67 32.38 124.17 32.38"/><polygon class="cls-162" points="119.29 32.38 110.26 37.21 132.41 44.62 124.17 32.38 119.29 32.38"/></g><g class="cls-19"><polygon class="cls-163" points="131.06 61.72 112.6 86.13 94.14 58.71 131.06 61.72"/><polygon class="cls-164" points="94.14 58.71 112.6 86.13 69.73 71.78 94.14 58.71"/></g><g class="cls-65"><polygon class="cls-165" points="51.3 62.51 51.3 63.67 52.28 63.61 51.3 62.51"/><polygon class="cls-166" points="51.3 49.76 51.3 62.51 52.28 63.61 67.22 52.77 51.3 49.76"/></g><g class="cls-68"><polygon class="cls-167" points="83.38 64.73 68.45 84.46 53.53 62.3 83.38 64.73"/><polygon class="cls-168" points="51.3 78.72 68.45 84.46 53.53 62.3 51.3 63.49 51.3 78.72"/></g><g class="cls-169"><polygon class="cls-170" points="131.88 60.58 134.18 84.8 126.1 58.73 131.88 60.58"/><polygon class="cls-171" points="126.1 58.73 134.18 84.8 125.3 72.13 126.1 58.73"/></g><g class="cls-107"><polygon class="cls-172" points="127.81 40.23 122.31 90.57 116.81 34.02 127.81 40.23"/><polygon class="cls-173" points="116.81 34.02 122.31 90.57 109.53 60.99 116.81 34.02"/></g><g class="cls-24"><polygon class="cls-174" points="141.74 43.42 137.9 45.21 134.61 56.15 141.74 50.05 141.74 43.42"/><polygon class="cls-175" points="141.74 50.05 134.61 56.15 141.74 57.41 141.74 50.05"/></g><g class="cls-71"><polygon class="cls-176" points="102.23 32.38 100.39 48.55 115.77 65.73 110.42 32.38 102.23 32.38"/><polygon class="cls-177" points="110.42 32.38 115.77 65.73 128.23 51.61 119.38 32.38 110.42 32.38"/></g><g class="cls-24"><polygon class="cls-178" points="73.96 70.55 69.32 78.34 65.76 67.46 73.96 70.55"/><polygon class="cls-179" points="65.76 67.46 69.32 78.34 58.12 69.74 65.76 67.46"/></g><g class="cls-68"><polygon class="cls-180" points="123.55 52.83 121.52 58.52 117.79 51.86 123.55 52.83"/><polygon class="cls-181" points="117.79 51.86 121.52 58.52 113.08 54.33 117.79 51.86"/></g><g class="cls-80"><polygon class="cls-182" points="51.3 54.78 51.3 63.03 55.25 63.9 51.3 54.78"/></g><g class="cls-65"><polygon class="cls-183" points="51.3 58.37 51.3 58.8 57.61 78.08 66.04 63.92 51.3 58.37"/><polygon class="cls-184" points="51.3 58.8 51.3 73.23 57.61 78.08 51.3 58.8"/></g><g class="cls-185"><polygon class="cls-186" points="134.65 56.28 130.65 63 127.57 53.61 134.65 56.28"/><polygon class="cls-187" points="127.57 53.61 130.65 63 120.97 55.57 127.57 53.61"/></g><g class="cls-80"><polygon class="cls-188" points="141.74 54.46 127.82 97.08 141.74 75.4 141.74 54.46"/><polygon class="cls-189" points="141.74 51.66 130.2 56.71 127.82 97.08 141.74 54.46 141.74 51.66"/></g><g class="cls-85"><polygon class="cls-190" points="88.88 102.12 97.56 66.95 84.85 46.65 85.58 102.12 88.88 102.12"/><polygon class="cls-191" points="85.58 102.12 84.85 46.65 70.51 59.76 82.25 102.12 85.58 102.12"/></g><g class="cls-88"><polygon class="cls-192" points="55.11 32.38 57.51 62.56 77.08 78.74 60.97 32.38 55.11 32.38"/><polygon class="cls-193" points="60.97 32.38 77.08 78.74 87.12 60.75 68.06 32.38 60.97 32.38"/></g><g class="cls-91"><polygon class="cls-194" points="51.3 73.08 51.3 75.42 55.31 73.38 51.3 73.08"/><polygon class="cls-195" points="51.3 68.13 51.3 73.08 55.31 73.38 51.3 68.13"/></g><polygon class="cls-196" points="59.04 102.12 59.79 92.87 78.21 100.52 85.15 86.52 87.51 102.12 91.5 102.12 92.92 96.33 95.68 102.12 100.94 102.12 100.14 87.91 105.66 100.91 109.72 94.08 111.82 102.12 126.31 102.12 128.74 80.69 139.94 98.69 139.94 81.06 138.78 71.84 139.94 71.54 139.94 34.72 136.96 33.28 99.74 33.28 97.17 38.07 91.64 35.45 90.94 36.76 87.72 33.28 86.78 33.28 84.33 39.08 83.19 33.28 69.67 33.28 69.65 33.4 68.56 33.28 67.42 33.28 65.35 34.84 64.84 33.28 54.64 33.28 54.53 34.61 54 34.35 54 102.12 59.04 102.12"/></g></g><g class="cls-197"><g class="cls-9"><g class="cls-10"><polygon class="cls-198" points="120.71 83.81 117.2 87.59 122.82 102.82 122.82 83.81 120.71 83.81"/></g><g class="cls-199"><polygon class="cls-200" points="122.82 105.85 122.82 99 122.19 105.85 122.82 105.85"/><polygon class="cls-201" points="122.19 105.85 122.82 99 122.82 92.36 114.94 96.74 120.41 105.85 122.19 105.85"/></g><g class="cls-16"><polygon class="cls-202" points="103.62 92.89 103.62 100.58 107.81 92.53 103.62 92.89"/></g><g class="cls-19"><polygon class="cls-203" points="109.89 105.85 114.93 98.65 103.62 98.14 103.62 102.02 106.41 105.85 109.89 105.85"/><polygon class="cls-204" points="106.41 105.85 103.62 102.02 103.62 105.85 106.41 105.85"/></g><g class="cls-27"><polygon class="cls-205" points="119.43 83.81 114.65 90.13 122.82 90.8 122.82 86.05 121.31 83.81 119.43 83.81"/><polygon class="cls-206" points="121.31 83.81 122.82 86.05 122.82 83.81 121.31 83.81"/></g><g class="cls-24"><polygon class="cls-207" points="103.62 87.32 103.62 96.65 114.34 90.9 103.62 87.32"/></g><g class="cls-208"><polygon class="cls-209" points="122.82 95.25 122.24 94.6 115.48 99.51 122.82 100.89 122.82 95.25"/></g><g class="cls-128"><polygon class="cls-210" points="108.17 94.1 114.92 85.17 121.67 95.2 108.17 94.1"/><polygon class="cls-211" points="122.82 87.81 114.92 85.17 121.67 95.2 122.82 94.58 122.82 87.81"/></g><g class="cls-19"><polygon class="cls-212" points="110.53 87.67 112.63 84.15 114.24 89.06 110.53 87.67"/><polygon class="cls-213" points="114.24 89.06 112.63 84.15 117.7 88.04 114.24 89.06"/></g><g class="cls-214"><polygon class="cls-215" points="122.82 94.9 120.89 94.47 122.82 98.91 122.82 94.9"/></g><g class="cls-30"><polygon class="cls-216" points="116.01 94.46 119.83 88.06 122.75 97 116.01 94.46"/><polygon class="cls-217" points="122.82 90.35 119.83 88.06 122.75 97 122.82 96.98 122.82 90.35"/></g><g class="cls-98"><polygon class="cls-218" points="104.05 83.81 103.62 85.54 103.62 96.07 107.5 102.28 107.26 83.81 104.05 83.81"/><polygon class="cls-219" points="107.26 83.81 107.5 102.28 113.99 96.35 110.52 83.81 107.26 83.81"/></g><g class="cls-146"><polygon class="cls-220" points="119.34 105.85 118.39 93.81 111.05 87.75 117.35 105.85 119.34 105.85"/><polygon class="cls-221" points="117.35 105.85 111.05 87.75 107.3 94.49 114.93 105.85 117.35 105.85"/></g><g class="cls-222"><polygon class="cls-223" points="122.82 89.19 120.87 90.18 122.82 90.33 122.82 89.19"/><polygon class="cls-224" points="122.82 90.33 120.87 90.18 122.82 92.74 122.82 90.33"/></g><g class="cls-85"><polygon class="cls-225" points="103.62 87.86 103.62 91.56 105.03 92.91 107.48 84.8 103.62 87.86"/><polygon class="cls-226" points="105.03 92.91 107.48 84.8 109.8 91.4 105.03 92.91"/></g><g class="cls-101"><polygon class="cls-227" points="103.62 99.81 106.57 100.37 103.63 93 103.62 93.02 103.62 99.81"/></g><g class="cls-54"><polygon class="cls-228" points="103.62 91.16 103.62 92.48 105.03 91.39 103.62 91.16"/></g><g class="cls-105"><polygon class="cls-229" points="103.62 84.42 103.62 85.5 105.88 88.85 108.9 84.85 103.62 84.42"/><polygon class="cls-230" points="103.62 85.5 103.62 88.1 105.88 88.85 103.62 85.5"/></g><g class="cls-19"><polygon class="cls-231" points="103.62 94.13 103.62 96.7 105.45 94.28 103.62 94.13"/></g><g class="cls-169"><polygon class="cls-232" points="105.71 93.92 106.44 101.61 103.87 93.33 105.71 93.92"/><polygon class="cls-233" points="103.62 97.59 106.44 101.61 103.87 93.33 103.62 97.55 103.62 97.59"/></g><g class="cls-107"><polygon class="cls-234" points="103.62 87.01 103.62 94.75 104.42 87.46 103.62 87.01"/></g><g class="cls-24"><polygon class="cls-235" points="107.62 89.04 114.24 85.96 106.58 92.52 107.62 89.04"/><polygon class="cls-236" points="106.58 92.52 114.24 85.96 109.5 93.03 106.58 92.52"/></g><g class="cls-71"><polygon class="cls-237" points="103.62 89.05 103.62 92.13 104.55 91.07 103.62 89.05"/></g><g class="cls-71"><polygon class="cls-238" points="115.89 105.85 118.44 98.52 114.88 92.13 114.02 105.85 115.89 105.85"/><polygon class="cls-239" points="114.02 105.85 114.88 92.13 110.03 95.63 112.21 105.85 114.02 105.85"/></g><g class="cls-185"><polygon class="cls-240" points="106.59 92.56 105.31 94.69 104.34 91.71 106.59 92.56"/><polygon class="cls-241" points="103.62 93.39 105.31 94.69 104.34 91.71 103.62 91.92 103.62 93.39"/></g><g class="cls-80"><polygon class="cls-242" points="110.41 96.19 104.42 105.51 109.18 90.94 110.41 96.19"/><polygon class="cls-243" points="109.18 90.94 104.42 105.51 105.17 92.69 109.18 90.94"/></g><polygon class="cls-244" points="119.43 83.81 117.7 86.1 114.92 85.17 114.57 85.64 112.63 84.15 111.25 86.46 110.52 83.81 104.05 83.81 103.89 84.44 103.62 84.42 103.62 105.85 109.89 105.85 111.67 103.31 112.21 105.85 119.35 105.85 119.18 103.81 120.41 105.85 122.82 105.85 122.82 83.81 119.43 83.81"/></g></g></g></g></svg>