<?xml version="1.0" encoding="UTF-8"?>
<svg width="101px" height="96px" viewBox="0 0 101 96" version="1.1" xmlns="http://www.w3.org/2000/svg" xmlns:xlink="http://www.w3.org/1999/xlink">
    <!-- Generator: Sketch 52.4 (67378) - http://www.bohemiancoding.com/sketch -->
    <title>Group 22</title>
    <desc>Created with Sketch.</desc>
    <g id="Frame-Work" stroke="none" stroke-width="1" fill="none" fill-rule="evenodd">
        <g id="電腦版海報試驗(滿·版)" transform="translate(-418.000000, -4855.000000)">
            <g id="Group-22" transform="translate(418.000000, 4855.000000)">
                <circle id="Oval" fill="#3343A6" cx="48" cy="48" r="48"></circle>
                <g id="comma" transform="translate(72.000000, 60.500000) scale(-1, -1) translate(-72.000000, -60.500000) translate(43.000000, 41.000000)" fill="#000000">
                    <g id="Group" transform="translate(29.000000, 19.500000) scale(-1, 1) rotate(-180.000000) translate(-29.000000, -19.500000) ">
                        <path d="M11.3094675,38.8898711 C6.16745562,38.1578729 2.00118343,34.675046 0.420118343,29.7731123 C0.0360946746,28.6071823 0.00650887574,28.3085175 0.00650887574,26.1861418 C-0.00828402367,23.4957643 0.169230769,22.6889503 1.1739645,20.5516114 C3.43431953,15.8292357 8.0295858,12.944337 13.5112426,12.810267 L15.2106509,12.7653775 L15.3142012,12.1824125 C15.6390533,10.344337 14.4869822,6.63766114 12.1816568,2.16906077 C11.0733728,0.0317219153 11.0289941,-0.102946593 11.4136095,0.0466850829 C12.0195266,0.286095764 14.4278107,2.31809392 16.1710059,4.06698895 C24.7698225,12.7504144 28.8627219,23.6753223 26.1142012,30.6248158 C25.0798817,33.2254144 22.4349112,36.0049724 19.5686391,37.4695672 C17.2195266,38.6803867 13.8656805,39.2483886 11.3094675,38.8898711 Z" id="Path"></path>
                        <path d="M42.3224852,38.8749079 C38.1710059,38.3368324 34.3585799,35.7063076 32.3786982,32.0002302 C30.6792899,28.846593 30.4727811,24.6473297 31.8615385,21.2848066 C32.7923077,18.9978361 34.683432,16.6516114 36.6337278,15.3216851 C39.0863905,13.6476059 41.4946746,12.8856814 44.5384615,12.8108656 L46.2378698,12.7659761 L46.3414201,12.183011 C46.6662722,10.3150092 45.5585799,6.74300184 43.2088757,2.1696593 C42.1005917,0.032320442 42.056213,-0.102348066 42.4260355,0.0472836096 C43.3568047,0.405801105 46.843787,3.54447514 48.8236686,5.78655617 C57.260355,15.3965009 60.2449704,26.1268877 56.2260355,32.4335635 C53.3005917,37.0069061 47.7301775,39.5769797 42.3224852,38.8749079 Z" id="Path"></path>
                    </g>
                </g>
            </g>
        </g>
    </g>
</svg>