<?xml version="1.0" encoding="UTF-8"?>
<svg width="145px" height="186px" viewBox="0 0 145 186" version="1.1" xmlns="http://www.w3.org/2000/svg" xmlns:xlink="http://www.w3.org/1999/xlink">
    <!-- Generator: Sketch 52.4 (67378) - http://www.bohemiancoding.com/sketch -->
    <title>燈塔@2x</title>
    <desc>Created with Sketch.</desc>
    <defs>
        <linearGradient x1="79.4765922%" y1="82.4724367%" x2="187.18%" y2="113.07388%" id="linearGradient-1">
            <stop stop-color="#BFCFDF" offset="0%"></stop>
            <stop stop-color="#BFCFDF" stop-opacity="0" offset="100%"></stop>
        </linearGradient>
        <linearGradient x1="50%" y1="85.8430424%" x2="100%" y2="114.096493%" id="linearGradient-2">
            <stop stop-color="#FFFFFF" offset="0%"></stop>
            <stop stop-color="#FFFFFF" stop-opacity="0" offset="100%"></stop>
        </linearGradient>
        <linearGradient x1="50%" y1="84.5259222%" x2="100%" y2="106.193104%" id="linearGradient-3">
            <stop stop-color="#E1E8F0" offset="0%"></stop>
            <stop stop-color="#E1E8F0" stop-opacity="0" offset="100%"></stop>
        </linearGradient>
        <linearGradient x1="22.9033924%" y1="0%" x2="79.4224726%" y2="184.033503%" id="linearGradient-4">
            <stop stop-color="#EEEEEE" offset="0%"></stop>
            <stop stop-color="#E2E2E2" stop-opacity="0.436867775" offset="56.3132225%"></stop>
            <stop stop-color="#D8D8D8" stop-opacity="0" offset="100%"></stop>
        </linearGradient>
        <linearGradient x1="29.8037298%" y1="100%" x2="89.1710633%" y2="-42.8252985%" id="linearGradient-5">
            <stop stop-color="#EEEEEE" offset="0%"></stop>
            <stop stop-color="#D8D8D8" stop-opacity="0" offset="100%"></stop>
        </linearGradient>
    </defs>
    <g id="Frame-Work" stroke="none" stroke-width="1" fill="none" fill-rule="evenodd" opacity="0.885602679">
        <g id="電腦版海報試驗(滿·版)" transform="translate(-24.000000, -219.000000)">
            <g id="COVER" transform="translate(-337.000000, -184.000000)">
                <g id="燈塔" transform="translate(423.500000, 494.000000) rotate(8.000000) translate(-423.500000, -494.000000) translate(351.000000, 404.000000)">
                    <g id="Group-13" transform="translate(0.000000, -0.000000)">
                        <g id="欄杆" transform="translate(59.539106, 13.426573)" stroke="#5A7CA3" stroke-linecap="round" stroke-width="5">
                            <path d="M0.217511943,0.100208766 L0.217511943,7.41544871" id="Line"></path>
                            <path d="M4.56775081,0.100208766 L4.56775081,7.41544871" id="Line"></path>
                            <path d="M9.57052551,0.100208766 L9.57052551,7.41544871" id="Line"></path>
                            <path d="M14.5733002,0.100208766 L14.5733002,7.41544871" id="Line"></path>
                            <path d="M18.7060271,0.100208766 L18.7060271,7.41544871" id="Line"></path>
                        </g>
                        <g id="菱形" transform="translate(66.424581, 14.265734)" fill="#CA544F">
                            <path d="M4.64931779,3.04633776 L4.79366456,3.33007554 C5.26965364,4.26571183 4.89703594,5.41006029 3.96139965,5.88604937 C3.69441034,6.02187564 3.39909831,6.09267552 3.09954519,6.09267552 L3.09954519,6.09267552 C2.04979243,6.09267552 1.19879967,5.24168276 1.19879967,4.19193 C1.19879967,3.89237688 1.26959954,3.59706485 1.40542582,3.33007554 L1.5497726,3.04633776 C1.98520521,2.19042199 3.03204991,1.84955304 3.88796568,2.28498565 C4.21591203,2.45182279 4.48248065,2.71839141 4.64931779,3.04633776 Z" id="Triangle"></path>
                            <path d="M4.64931779,8.80053131 L4.79366456,9.08426909 C5.26965364,10.0199054 4.89703594,11.1642538 3.96139965,11.6402429 C3.69441034,11.7760692 3.39909831,11.8468691 3.09954519,11.8468691 L3.09954519,11.8468691 C2.04979243,11.8468691 1.19879967,10.9958763 1.19879967,9.94612354 C1.19879967,9.64657043 1.26959954,9.3512584 1.40542582,9.08426909 L1.5497726,8.80053131 C1.98520521,7.94461554 3.03204991,7.60374659 3.88796568,8.0391792 C4.21591203,8.20601634 4.48248065,8.47258495 4.64931779,8.80053131 Z" id="Triangle" transform="translate(3.099545, 8.800531) scale(-1, -1) translate(-3.099545, -8.800531) "></path>
                        </g>
                        <g id="菱形" transform="translate(67.234637, 0.000000)" fill="#CA544F">
                            <path d="M2.11972186,1.26128304 L2.13563691,1.2896925 C2.35916873,1.68871216 2.21690773,2.19338985 1.81788807,2.41692167 C1.69423776,2.48619089 1.55487872,2.52256609 1.41314791,2.52256609 L1.41314791,2.52256609 C0.955782448,2.52256609 0.585014487,2.15179812 0.585014487,1.69443267 C0.585014487,1.55270185 0.621389688,1.41334281 0.690658905,1.2896925 L0.706573953,1.26128304 C0.925181798,0.871053024 1.41874241,0.731925763 1.80897242,0.950533607 C1.93921628,1.02349654 2.04675893,1.13103919 2.11972186,1.26128304 Z" id="Triangle"></path>
                            <path d="M2.11972186,3.39576204 L2.13563691,3.42417149 C2.35916873,3.82319115 2.21690773,4.32786884 1.81788807,4.55140066 C1.69423776,4.62066988 1.55487872,4.65704508 1.41314791,4.65704508 L1.41314791,4.65704508 C0.955782448,4.65704508 0.585014487,4.28627712 0.585014487,3.82891166 C0.585014487,3.68718085 0.621389688,3.54782181 0.690658905,3.42417149 L0.706573953,3.39576204 C0.925181798,3.00553202 1.41874241,2.86640476 1.80897242,3.0850126 C1.93921628,3.15797554 2.04675893,3.26551819 2.11972186,3.39576204 Z" id="Triangle" transform="translate(1.413148, 3.395762) scale(-1, -1) translate(-1.413148, -3.395762) "></path>
                        </g>
                        <path d="M69.0572626,12.1595939 C73.1664736,12.1595939 75.2113587,12.2743943 76.7184618,11.6469023 C77.2213706,11.437513 78.9804469,12.481631 78.9804469,11.6284976 C78.9804469,8.21871799 74.537686,5.45454545 69.0572626,5.45454545 C63.5768392,5.45454545 59.1340782,8.21871799 59.1340782,11.6284976 C59.1340782,12.7694104 60.8261349,11.7034141 61.6933755,11.7796584 C63.4180064,11.931281 65.4105897,12.1595939 69.0572626,12.1595939 Z" id="Oval" fill="#FFFFFF"></path>
                        <polygon id="Rectangle" fill="#6184AF" points="57.9189944 11.3286713 80.6005587 11.3286713 79.3191144 12.9088887 59.3285832 13.006993"></polygon>
                        <g id="Group" transform="translate(53.463687, 20.559441)">
                            <ellipse id="Oval" fill="#5A7CA3" cx="16.3845848" cy="11.5216637" rx="16.3845848" ry="5.1794635"></ellipse>
                            <rect id="Rectangle" fill="#6185AF" x="6.67906641" y="1.05703337" width="18.7848743" height="4.97286152" rx="2.48643076"></rect>
                            <rect id="Rectangle" fill="#6184AF" x="5.84418311" y="0" width="21.0808034" height="1.69125339" rx="0.845626693"></rect>
                            <rect id="Rectangle" fill="#6184AF" x="5.63546228" y="5.91938685" width="21.0808034" height="1.69125339" rx="0.845626693"></rect>
                        </g>
                        <polygon id="Rectangle" fill="url(#linearGradient-1)" points="72.0949721 29.7902098 85.8588127 30.6586605 108.547486 180 72.0949721 180"></polygon>
                        <polygon id="Rectangle" fill="url(#linearGradient-2)" points="53.2394356 32.4162993 62.3743017 29.7902098 58.5620289 180 38.8826816 180"></polygon>
                        <polygon id="Rectangle" fill="url(#linearGradient-3)" points="61.8921538 29.7902098 73.4428564 29.821846 86.6759777 179.916603 57.9189944 180 58.9477125 141.10815"></polygon>
                        <polygon id="Rectangle" fill="url(#linearGradient-4)" points="79.7905028 13.9920949 145 9.23076923 145 21.3986014 79.7905028 17.9598662"></polygon>
                        <polygon id="Rectangle" fill="url(#linearGradient-5)" transform="translate(30.174581, 14.265734) scale(-1, 1) translate(-30.174581, -14.265734) " points="0 12.8975372 60.349162 7.97202797 60.349162 20.5594406 0 17.0021283"></polygon>
                    </g>
                </g>
            </g>
        </g>
    </g>
</svg>