<?xml version="1.0" encoding="UTF-8"?>
<svg width="580px" height="261px" viewBox="0 0 580 261" version="1.1" xmlns="http://www.w3.org/2000/svg" xmlns:xlink="http://www.w3.org/1999/xlink">
    <!-- Generator: Sketch 52.4 (67378) - http://www.bohemiancoding.com/sketch -->
    <title>geo-bull-01</title>
    <desc>Created with Sketch.</desc>
    <g id="Frame-Work" stroke="none" stroke-width="1" fill="none" fill-rule="evenodd">
        <g id="電腦版海報試驗(滿·版)" transform="translate(-832.000000, -448.000000)">
            <g id="COVER" transform="translate(-355.000000, -141.000000)">
                <g id="geo-bull-01" transform="translate(1480.435148, 715.393910) rotate(-3.000000) translate(-1480.435148, -715.393910) translate(1192.435148, 584.893910)">
                    <polygon id="Path" fill="#787878" points="197.042452 1.08905579 241.792492 11.7065308 186.245568 25.0482833"></polygon>
                    <polygon id="Path" fill="#D6D6D6" points="55.5469239 53.5370143 77.6804207 62.0761803 185.921638 23.6553042 198.226277 0 85.0582529 47.1245841"></polygon>
                    <polygon id="Path" fill="#9A9292" points="151.939416 82.7682403 186.245568 22.8701717 78.4191867 61.3776109"></polygon>
                    <polygon id="Path" fill="#A4A4A4" points="63.1710115 82.7682403 78.4191867 61.7665314 55.5469239 53.3637339"></polygon>
                    <polygon id="Path" fill="#FFFFFF" opacity="0.9" points="104.558916 68.0026827 63.1710115 82.7682403 77.9329449 60.9871245"></polygon>
                    <polygon id="Path" fill="#D6D6D6" points="151.392596 83.8609507 82.7758081 94.7478541 104.825919 68.610515"></polygon>
                    <polygon id="Path" fill="#A4A4A4" points="151.392596 82.7682403 82.7758081 93.4701041 119.525993 147.022532"></polygon>
                    <polygon id="Path" fill="#D6D6D6" points="68.6167883 94.7478541 83.2513512 94.7478541 119.807091 147.022532"></polygon>
                    <polygon id="Path" fill="#343434" points="143.856181 135.288486 133.803412 150.2897 118.717935 148.154372 151.392596 83.8572961"></polygon>
                    <polygon id="Path" fill="#A4A4A4" points="241.792492 10.8905579 151.392596 83.8572961 185.595304 23.7733933"></polygon>
                    <polygon id="Path" fill="#D6D6D6" points="252.684046 102.371245 151.392596 83.4572322 242.801044 11.9796137"></polygon>
                    <polygon id="Path" fill="#787878" points="190.912174 163.358369 252.684046 101.851163 151.392596 82.7682403"></polygon>
                    <polygon id="Path" fill="#D6D6D6" points="207.981111 218.900215 252.684046 138.396074 252.684046 102.371245 190.60219 163.812823"></polygon>
                    <polygon id="Path" fill="#A4A4A4" points="184.067258 231.968884 191.581169 163.358369 209.117831 219.107784"></polygon>
                    <polygon id="Path" fill="#787878" points="206.621599 248.304721 184.067258 233.056253 209.117831 219.98927"></polygon>
                    <polygon id="Path" fill="#343434" points="192.582531 260.284335 204.76121 247.211451 182.842038 231.968884 163.373306 258.103694"></polygon>
                    <polygon id="Path" fill="#A4A4A4" points="252.134061 139.399142 257.040667 171.28296 230.900938 175.337983"></polygon>
                    <polygon id="Path" fill="#A4A4A4" points="278.823775 217.008829 256.931716 226.523605 240.703337 201.13997 260.45745 198.208155"></polygon>
                    <polygon id="Path" fill="#787878" points="229.811783 174.097876 242.385772 199.29721 262.486444 197.194624 257.464439 169.892704"></polygon>
                    <polygon id="Path" fill="#D6D6D6" points="232.290533 205.197157 229.811783 175.337983 257.040667 226.523605"></polygon>
                    <polygon id="Path" fill="#343434" points="261.029973 246.126609 278.823775 241.765329 278.823775 217.811159 255.951512 226.522762"></polygon>
                    <polygon id="Path" fill="#A4A4A4" points="251.594891 102.371245 251.594891 138.860013 312.866047 175.337983 349.618874 143.147092"></polygon>
                    <polygon id="Path" fill="#787878" points="296.250261 75.0474784 252.588362 102.371245 242.881648 11.9796137"></polygon>
                    <polygon id="Path" fill="#D6D6D6" points="324.5683 55.8642513 295.346823 75.1448498 241.792492 10.8905579"></polygon>
                    <polygon id="Path" fill="#A4A4A4" points="362.688738 69.3873427 325.779849 56.6309013 296.250261 75.7602171 350.381648 143.755365"></polygon>
                    <polygon id="Path" fill="#FFFFFF" opacity="0.9" points="251.594891 103.014163 295.698283 75.1448498 349.618874 143.755365"></polygon>
                    <polygon id="Path" fill="#787878" points="369.22367 167.145663 349.897717 143.755365 313.676747 175.652199 328.165135 188.406652"></polygon>
                    <polygon id="Path" fill="#D6D6D6" points="434.287409 167.714592 436.751303 212.36588 392.463112 188.975582 370.312826 167.714592"></polygon>
                    <polygon id="Path" fill="#A4A4A4" points="349.618874 144.168084 432.394682 105.638412 432.394682 167.714592 369.096976 167.714592"></polygon>
                    <polygon id="Path" fill="#D6D6D6" points="429.956857 68.610515 361.79575 68.610515 349.618874 143.755365 432.394682 105.107899"></polygon>
                    <polygon id="Path" fill="#787878" points="479.228363 130.404692 432.670053 166.625536 430.216371 68.610515"></polygon>
                    <polygon id="Path" fill="#A4A4A4" points="434.622605 185.139485 479.228363 130.686695 433.483837 166.917052"></polygon>
                    <polygon id="Path" fill="#D6D6D6" points="494.476538 89.6875664 431.305527 67.5214592 479.420044 130.686695"></polygon>
                    <polygon id="Path" fill="#787878" points="508.635558 131.775751 479.228363 129.659574 493.925795 89.3025751"></polygon>
                    <polygon id="Path" fill="#D6D6D6" points="504.008437 165.373402 446.553702 170.98176 477.108448 130.686695 506.457247 132.847113"></polygon>
                    <polygon id="Path" fill="#A4A4A4" points="496.796384 202.564378 504.099754 173.75022 506.457247 164.447425 450.910323 170.798474"></polygon>
                    <polygon id="Path" fill="#787878" points="521.404983 186.45477 523.883733 217.811159 496.654849 203.17467 506.557394 165.536481"></polygon>
                    <polygon id="Path" fill="#D6D6D6" points="499.133599 235.236052 496.654849 202.564378 523.883733 217.809697"></polygon>
                    <polygon id="Path" fill="#343434" points="515.608564 249.516896 515.608564 236.838855 522.794578 217.811159 498.837179 234.722303 486.85245 253.75"></polygon>
                    <polygon id="Path" fill="#A4A4A4" points="465.069343 201.112303 433.421932 186.228541 435.860118 211.737448 423.681439 230.879828"></polygon>
                    <polygon id="Path" fill="#787878" points="438.286052 247.215665 423.681439 232.331903 465.069343 202.564378"></polygon>
                    <polygon id="Path" fill="#343434" points="402.987487 257.013794 427.893205 259.195279 437.840459 246.128296 422.90705 230.879828"></polygon>
                    <polygon id="Path" fill="#343434" points="17.4264859 66.4324034 39.4880481 94.7478541 68.8870219 94.7478541 83.5988406 94.7478541 105.648071 68.613888 63.9913035 83.8623556 39.4880481 79.4993865"></polygon>
                    <polygon id="Path" fill="#343434" points="0 26.1373391 19.4215743 50.3013052 48.5417208 48.1015663 65.5447594 43.7131424 66.7418124 51.1856223 84.9541189 48.1015663 82.5355832 34.9252407 65.5447594 28.337078 33.9816475 39.3247185"></polygon>
                    <path d="M493.387383,89.3025751 C493.387383,89.3025751 540.421357,123.289666 575.074035,112.666028 L555.268946,131.775751 L555.268946,99.9903396" id="Path" stroke="#999999" fill="#FFFFFF" opacity="0.65" stroke-linecap="round" stroke-linejoin="round"></path>
                </g>
            </g>
        </g>
    </g>
</svg>