<?xml version="1.0" encoding="UTF-8"?>
<svg width="64px" height="90px" viewBox="0 0 64 90" version="1.1" xmlns="http://www.w3.org/2000/svg" xmlns:xlink="http://www.w3.org/1999/xlink">
    <!-- Generator: Sketch 52.4 (67378) - http://www.bohemiancoding.com/sketch -->
    <title>location</title>
    <desc>Created with Sketch.</desc>
    <g id="Frame-Work" stroke="none" stroke-width="1" fill="none" fill-rule="evenodd">
        <g id="電腦版海報試驗(滿·版)" transform="translate(-1252.000000, -391.000000)">
            <g id="location" transform="translate(1252.000000, 391.000000)">
                <path d="M32,0 L32,64 L31.7746479,64 C14.2259944,64 0,49.673112 0,32 C0,14.326888 14.2259944,0 31.7746479,0 L32,0 Z" id="Path" fill="#4D4D4D"></path>
                <path d="M32.0855193,64 L32,0 L32.2250508,2.96865436e-05 C49.7502389,-0.0237851342 63.9763551,14.2837905 63.9999706,31.9568943 C64.0235861,49.6299981 49.8357582,63.9761852 32.3105701,64 L32.0855193,64 Z" id="Path" fill="#333333"></path>
                <path d="M31.7381703,90 L43,58 L31.4400631,58.2848262 L31,89.823679 C31.2548309,89.8415012 31.5045416,89.9011476 31.7381703,90 Z" id="Path" fill="#333333"></path>
                <path d="M32,90 L31.5553804,58.2842239 L20,58 L31.2006307,89.7654025 C31.4797541,89.7969165 31.7505834,89.876399 32,90 Z" id="Path" fill="#4D4D4D"></path>
                <circle id="Oval" fill="#CA544F" cx="33" cy="32" r="22"></circle>
                <path d="M38.1439723,31.1341129 C38.6082197,29.1572191 38.4503755,26.4828595 39.7502682,25.3589177 C42.6239596,22.8711413 39.8941849,18.8462745 43,16.7183372 C42.9071518,16.5004906 42.783769,16.2957415 42.6332446,16.1097205 C41.4772685,14.737001 39.3835128,14.7769831 38.0696927,13 C36.7837274,15.5988378 33.4272187,14.8391775 32.1923207,16.8915931 C30.892428,19.0373002 29.0075835,20.7121068 27.6519812,22.7734072 C26.0224728,25.2389713 23.85908,27.5623768 23.0095072,30.2589487 C22.0206603,33.3686692 21.2035849,36.7582645 23.3669777,40.081223 C24.3279698,41.556119 24.8897092,43.1598462 26.6909891,43.9106216 C28.041949,44.4748138 28.5154813,45.6431802 28.6965378,46.8959533 C28.8311695,47.8288694 28.394777,49.1616068 30.0150004,48.9839085 C31.1988312,48.8595196 31.1849038,47.6778259 31.1059818,46.7626795 C30.9342102,44.7635735 31.3984576,42.6889457 32.7679874,41.4317301 C35.8877299,38.5352476 37.2386898,34.9901663 38.1439723,31.1341129 Z" id="Path" fill="#FFFFFF"></path>
            </g>
        </g>
    </g>
</svg>