<?xml version="1.0" encoding="UTF-8"?>
<svg width="956px" height="474px" viewBox="0 0 956 474" version="1.1" xmlns="http://www.w3.org/2000/svg" xmlns:xlink="http://www.w3.org/1999/xlink">
    <!-- Generator: Sketch 52.4 (67378) - http://www.bohemiancoding.com/sketch -->
    <title>Group 22</title>
    <desc>Created with Sketch.</desc>
    <g id="Frame-Work" stroke="none" stroke-width="1" fill="none" fill-rule="evenodd">
        <g id="電腦版海報試驗(滿·版)" transform="translate(-125.000000, -22.000000)">
            <g id="Group-22" transform="translate(119.000000, 22.000000)">
                <g id="Group-12" transform="translate(129.000000, 430.000000)">
                    <circle id="Oval" fill-opacity="0.3" fill="#FFFFFF" cx="106" cy="2" r="2"></circle>
                    <path d="M90,20.7393638 L104.5,3.5" id="Line-15" stroke-opacity="0.3" stroke="#FFFFFF" stroke-linecap="square"></path>
                    <circle id="Oval" fill-opacity="0.304008152" fill="#FFFFFF" cx="85.5" cy="24.5" r="4.5"></circle>
                    <path d="M55.5,19.7393638 L81.514716,24.0350819" id="Line-14" stroke-opacity="0.3" stroke="#FFFFFF" stroke-linecap="square"></path>
                    <circle id="Oval" fill-opacity="0.3" fill="#FFFFFF" cx="50" cy="18" r="6"></circle>
                    <circle id="Oval" fill-opacity="0.3" fill="#FFFFFF" cx="10.5" cy="33.5" r="10.5"></circle>
                    <path d="M21,29.3308 L44.5,20.7393638" id="Line-13" stroke-opacity="0.3" stroke="#FFFFFF" stroke-linecap="square"></path>
                </g>
                <g id="鏈" transform="translate(468.000000, 91.000000)">
                    <path d="M119,28.5 L140,21" id="Line-11" stroke-opacity="0.3" stroke="#FFFFFF" stroke-width="2" stroke-linecap="square"></path>
                    <path d="M122,8 L140,20.5" id="Line-10" stroke-opacity="0.3" stroke="#FFFFFF" stroke-width="2" stroke-linecap="square"></path>
                    <circle id="Oval" fill-opacity="0.3" fill="#FFFFFF" cx="117" cy="5" r="5"></circle>
                    <circle id="Oval" fill-opacity="0.3" fill="#FFFFFF" cx="111.5" cy="28.5" r="7.5"></circle>
                    <circle id="Oval" fill-opacity="0.3" fill="#FFFFFF" cx="40.5" cy="81.5" r="7.5"></circle>
                    <path d="M115,10 L112,20.5" id="Line-9" stroke-opacity="0.3" stroke="#FFFFFF" stroke-width="2" stroke-linecap="square"></path>
                    <circle id="Oval" fill-opacity="0.3" fill="#D8D8D8" cx="143.5" cy="20.5" r="3.5"></circle>
                    <path d="M8.52275866,101 L33,84" id="Line-11" stroke-opacity="0.3" stroke="#FFFFFF" stroke-width="2" stroke-linecap="square"></path>
                    <path d="M11,77 L31,88" id="Line-10" stroke-opacity="0.3" stroke="#FFFFFF" stroke-width="2" stroke-linecap="square" transform="translate(20.500000, 82.500000) rotate(-30.000000) translate(-20.500000, -82.500000) "></path>
                    <circle id="Oval" fill-opacity="0.3" fill="#FFFFFF" cx="5" cy="102" r="5"></circle>
                    <circle id="Oval" fill-opacity="0.3" fill="#D8D8D8" cx="6.5" cy="81.5" r="3.5"></circle>
                    <path d="M106.5,33.5 L70,68" id="Line-12" stroke-opacity="0.3" stroke="#FFFFFF" stroke-linecap="square"></path>
                    <path d="M67,70.5 L48,79.5" id="Line-12" stroke-opacity="0.3" stroke="#FFFFFF" stroke-linecap="square"></path>
                    <circle id="Oval" fill-opacity="0.3" fill="#D8D8D8" cx="68.5" cy="69.5" r="2.5"></circle>
                </g>
                <g id="Group-5" transform="translate(794.689632, 60.889763) rotate(174.000000) translate(-794.689632, -60.889763) translate(721.189632, 7.389763)">
                    <path d="M119,28.5 L140,21" id="Line-11" stroke-opacity="0.3" stroke="#FFFFFF" stroke-width="2" stroke-linecap="square"></path>
                    <path d="M122,8 L140,20.5" id="Line-10" stroke-opacity="0.3" stroke="#FFFFFF" stroke-width="2" stroke-linecap="square"></path>
                    <circle id="Oval" fill-opacity="0.3" fill="#FFFFFF" cx="117" cy="5" r="5"></circle>
                    <circle id="Oval" fill-opacity="0.3" fill="#FFFFFF" cx="111.5" cy="28.5" r="7.5"></circle>
                    <circle id="Oval" fill-opacity="0.3" fill="#FFFFFF" cx="40.5" cy="81.5" r="7.5"></circle>
                    <path d="M115,10 L112,20.5" id="Line-9" stroke-opacity="0.3" stroke="#FFFFFF" stroke-width="2" stroke-linecap="square"></path>
                    <circle id="Oval" fill-opacity="0.3" fill="#D8D8D8" cx="143.5" cy="20.5" r="3.5"></circle>
                    <path d="M8.52275866,101 L33,84" id="Line-11" stroke-opacity="0.3" stroke="#FFFFFF" stroke-width="2" stroke-linecap="square"></path>
                    <path d="M11,77 L31,88" id="Line-10" stroke-opacity="0.3" stroke="#FFFFFF" stroke-width="2" stroke-linecap="square" transform="translate(20.500000, 82.500000) rotate(-30.000000) translate(-20.500000, -82.500000) "></path>
                    <circle id="Oval" fill-opacity="0.3" fill="#FFFFFF" cx="5" cy="102" r="5"></circle>
                    <circle id="Oval" fill-opacity="0.3" fill="#D8D8D8" cx="6.5" cy="81.5" r="3.5"></circle>
                    <path d="M106.5,33.5 L70,68" id="Line-12" stroke-opacity="0.3" stroke="#FFFFFF" stroke-linecap="square"></path>
                    <path d="M67,70.5 L48,79.5" id="Line-12" stroke-opacity="0.3" stroke="#FFFFFF" stroke-linecap="square"></path>
                    <circle id="Oval" fill-opacity="0.3" fill="#D8D8D8" cx="68.5" cy="69.5" r="2.5"></circle>
                </g>
                <g id="Group-11" transform="translate(948.762883, 171.010021) rotate(-72.000000) translate(-948.762883, -171.010021) translate(927.262883, 153.010021)">
                    <path d="M14.0938549,28.7549569 L34.097887,21.618034" id="Line-11" stroke-opacity="0.3" stroke="#FFFFFF" stroke-width="2" stroke-linecap="square"></path>
                    <path d="M18,8 L37.190063,20.9516683" id="Line-10" stroke-opacity="0.3" stroke="#FFFFFF" stroke-width="2" stroke-linecap="square"></path>
                    <circle id="Oval" fill-opacity="0.3" fill="#FFFFFF" cx="13" cy="5" r="5"></circle>
                    <circle id="Oval" fill-opacity="0.3" fill="#FFFFFF" cx="7.5" cy="28.5" r="7.5"></circle>
                    <path d="M11,10 L8,20.5" id="Line-9" stroke-opacity="0.3" stroke="#FFFFFF" stroke-width="2" stroke-linecap="square"></path>
                    <circle id="Oval" fill-opacity="0.3" fill="#D8D8D8" cx="39.5" cy="20.5" r="3.5"></circle>
                </g>
                <g id="Group-4" transform="translate(398.000000, 80.000000)">
                    <circle id="Oval" fill-opacity="0.3" fill="#FFFFFF" cx="5" cy="5" r="5"></circle>
                    <path d="M9,10 L26.5,30.5" id="Line-8" stroke-opacity="0.3" stroke="#FFFFFF" stroke-width="2" fill="#D8D8D8" stroke-linecap="square"></path>
                    <circle id="Oval" fill-opacity="0.3" fill="#D8D8D8" cx="26.5" cy="30.5" r="2.5"></circle>
                </g>
                <g id="Group-4" transform="translate(21.340615, 113.604915) rotate(-101.000000) translate(-21.340615, -113.604915) translate(5.340615, 95.604915)">
                    <circle id="Oval" fill-opacity="0.3" fill="#FFFFFF" cx="5.809191" cy="5.98162718" r="5"></circle>
                    <path d="M10,10 L27.5,30.5" id="Line-8" stroke-opacity="0.3" stroke="#FFFFFF" stroke-width="2" fill="#D8D8D8" stroke-linecap="square"></path>
                    <circle id="Oval" fill-opacity="0.3" fill="#D8D8D8" cx="29.0816364" cy="32.8448724" r="2.5"></circle>
                </g>
                <circle id="Oval" fill-opacity="0.309527853" fill="#FFFFFF" cx="706.5" cy="263.5" r="16.5"></circle>
            </g>
        </g>
    </g>
</svg>