<svg id="圖層_1" data-name="圖層 1" xmlns="http://www.w3.org/2000/svg" viewBox="0 0 1080 1080"><defs><style>.cls-1,.cls-2{fill:#231815;}.cls-1,.cls-6{stroke:#fff;stroke-miterlimit:10;stroke-width:18px;}.cls-3{fill:#fff;}.cls-4,.cls-6{fill:#f2cc1e;}.cls-5{fill:#398fbe;}</style></defs><title>Logo-white-frame</title><path class="cls-1" d="M1003.1,326.08,805.5,212a14.88,14.88,0,0,0-14.91,0L603.23,320.16c-8.32,4.81-17.56,8.51-17.56,19.92V567A14.86,14.86,0,0,0,593,579.77L759.71,676l28.18,16.27c9.84,5.68,17.12,1.84,25.9-3.23l83.53-48.22c16.51-9.53,1.62-35.09-14.92-25.54l-91.81,53H805.5L607.91,554.24,615.24,567V338.85l-7.33,12.77L805.5,237.54H790.59L988.18,351.62c16.54,9.55,31.43-16,14.92-25.54Z"/><path class="cls-2" d="M769,610.9a23.51,23.51,0,0,1-11.78-3.17S678,562,671.24,558.09c-1.07-.63-2.38-1.3-3.75-2-6-3.12-13.46-7-17.48-13.85s-3.71-15.52-3.4-22.4c.07-1.55.13-3,.13-4.25V416.28a24.66,24.66,0,0,1,23.94-23.93,23.62,23.62,0,0,1,11.9,3.32l98.64,56.94a23.83,23.83,0,0,1,11.86,20.62V587.12a23.32,23.32,0,0,1-7.46,17.17A24.46,24.46,0,0,1,769,610.9Zm-23.64-65.09V487l-50.94-29.42V516.4Z"/><path class="cls-3" d="M670.68,401.35a14.71,14.71,0,0,1,7.4,2.11l98.65,57a14.92,14.92,0,0,1,7.35,12.82V587.12c0,8.59-7.29,14.78-15.06,14.78a14.44,14.44,0,0,1-7.28-2L709.87,570l-34.13-19.71c-5.66-3.27-14.49-6.7-18-12.63s-2-15.52-2-22.09V416.28c0-6.38,3.3-10.64,7.7-12.77-8.35,5.33-11.53,19.13-.34,25.59L685.44,442v79.6l-7.36-4.25q3.69,6.4,7.36,12.82V521.6l68.94,39.8v25.72l22.35-12.82-22.35-12.9V481.8l7.36,4.24q-3.68-6.41-7.36-12.81v8.57L685.44,442V416.28c0-9.57-7.43-14.36-14.85-14.36a16.56,16.56,0,0,0-7.15,1.59,13.46,13.46,0,0,1,7.24-2.16m0-18a31.41,31.41,0,0,0-16,4.43c-10.62,5.55-16.93,16.13-16.93,28.5v99.29c0,1-.06,2.4-.12,3.85-.34,7.64-.8,18.09,4.62,27.34s14.45,13.84,21.1,17.3c1.28.67,2.5,1.3,3.4,1.82l21.33,12.32,12.8,7.39,17.35,10,34.52,19.93A32.59,32.59,0,0,0,769,619.9a33,33,0,0,0,33.06-32.78V473.23a32.88,32.88,0,0,0-16.35-28.41l-98.65-56.95a32.5,32.5,0,0,0-16.4-4.52ZM703.44,511.2v-38l32.94,19v38l-32.94-19Z"/><polygon class="cls-4" points="670.59 416.28 769.23 473.23 769.23 587.12 670.59 530.16 670.59 416.28"/><path class="cls-2" d="M663.1,429.1,761.74,486q-3.68-6.41-7.36-12.81V587.12l22.35-12.82-98.65-56.95q3.69,6.4,7.36,12.82V416.28c0-19.15-29.7-19.15-29.7,0v99.29c0,6.57-1.47,16.13,2,22.09s12.31,9.36,18,12.63L709.87,570l51.87,29.94c9.74,5.63,22.34-1.52,22.34-12.82V473.23a14.92,14.92,0,0,0-7.35-12.82l-98.65-57C661.47,393.87,646.53,419.53,663.1,429.1Z"/><path class="cls-2" d="M842.37,610.4a24,24,0,0,1-24.06-23.78V470.39a25,25,0,0,1,1-7.09,22.73,22.73,0,0,1,10.87-13.53l100.65-58.11a23.61,23.61,0,0,1,11.78-3.16,23.94,23.94,0,0,1,24.06,23.77V528.5a23.81,23.81,0,0,1-11.86,20.62L854.15,607.23A23.62,23.62,0,0,1,842.37,610.4ZM866,545.31l53-30.57V453.58l-53,30.58Z"/><path class="cls-3" d="M942.6,397.5a15,15,0,0,1,15.06,14.78V528.5a14.92,14.92,0,0,1-7.35,12.82L849.65,599.44a14.44,14.44,0,0,1-7.28,2c-7.77,0-15.06-6.19-15.06-14.78V470.39a15.65,15.65,0,0,1,.64-4.58c-2.49,8.85,4.69,19.51,14.29,19.51a14.71,14.71,0,0,0,7.41-2.11L857,479V560.9l-22.34,12.9L857,586.62V560.9l71-41v8.57q3.69-6.4,7.36-12.82-3.68,2.13-7.36,4.25V438l22.35-12.9L928,412.28V438l-71,41v-8.57c0-9.58-7.43-14.36-14.85-14.36-6.13,0-12.26,3.26-14.21,9.78a13.77,13.77,0,0,1,6.72-8.24l100.65-58.11a14.46,14.46,0,0,1,7.28-2m0-18a32.64,32.64,0,0,0-16.28,4.37L825.67,442a32,32,0,0,0-15,18.81,33.9,33.9,0,0,0-1.35,9.6V586.62a33,33,0,0,0,33.06,32.78A32.56,32.56,0,0,0,858.66,615l55.86-32.25,44.79-25.86a32.83,32.83,0,0,0,16.35-28.41V412.28A33,33,0,0,0,942.6,379.5ZM875,489.35l34.83-20.11.12-.07v40.37L891.86,520,875,529.72V489.35Z"/><polygon class="cls-5" points="842.16 470.39 942.82 412.27 942.82 528.5 842.16 586.62 842.16 470.39"/><path class="cls-2" d="M849.65,483.21,950.31,425.1,928,412.28V528.5q3.69-6.4,7.36-12.82L834.67,573.8,857,586.62V470.39c0-19.15-29.7-19.15-29.7,0V586.62c0,11.3,12.6,18.45,22.34,12.82l100.66-58.12a14.92,14.92,0,0,0,7.35-12.82V412.28c0-11.3-12.6-18.45-22.34-12.82L834.67,457.57C818.09,467.14,833,492.8,849.65,483.21Z"/><path class="cls-4" d="M315.42,829.06A32.43,32.43,0,0,1,283,861.49h0a32.43,32.43,0,0,1-32.43-32.43V815A32.43,32.43,0,0,1,283,782.54h0A32.43,32.43,0,0,1,315.42,815Z"/><path class="cls-2" d="M60.9,875.17v-107h52.7c12.58,0,21.2,2.21,26.35,6.75,5.36,4.74,8,12.69,8,24.3,0,5.68-1.11,14.22-6.9,20.26,7.76,6.31,9.2,16.65,9.2,23.45,0,11.54-2.67,19.65-8.17,24.77s-13.87,7.47-25.94,7.47ZM104.63,848l6.39-.14c5.65,0,7.55-.81,8-1,.2-.35.93-1.94.93-6.4,0-3.83-.52-5.5-.76-6.06-.86-.3-3.7-1-11.2-1h-17V848ZM107,808.05c6.67,0,9.13-.75,9.82-1,.23-.51.81-2.18.81-6.27,0-2.66,0-5.42-6.94-5.42H90.93v12.72Z"/><path class="cls-3" d="M113.6,774.17q16.43,0,22.38,5.25t5.94,19.8q0,17.61-14,20.74v.35q16.27,2.51,16.28,22.62,0,14.54-6.26,20.39t-21.85,5.85H66.9v-95h46.7M84.93,814.05H107c7.14,0,11.7-.8,13.67-2.37s3-5.22,3-10.93q0-11.41-12.94-11.42H84.93v24.72m0,39.94h19.76l6.33-.14q9.12,0,12-2.57t2.89-10.86q0-8.62-3-10.86T108,827.34h-23V854m28.67-91.82H54.9v119h61.21c13.66,0,23.48-3,30-9.07s10.08-16.06,10.08-29.17c0-9.91-2.53-18-7.27-24,3.25-5.29,5-12,5-19.75,0-13.43-3.27-22.85-10-28.8-6.38-5.63-16-8.25-30.32-8.25ZM96.93,801.33h13.75c.36,0,.67,0,.94,0,0,.19,0,.36,0,.53-1.13.09-2.64.16-4.61.16H96.93v-.72Zm0,38h11c2.61,0,4.55.09,6,.2,0,.27,0,.57,0,.88,0,.5,0,1,0,1.34-.76.06-1.7.09-2.87.09h-.25l-6.21.13H96.93v-2.65Z"/><polygon class="cls-2" points="158.44 875.17 158.44 768.17 188.46 768.17 188.46 847.02 233 847.02 233 875.17 158.44 875.17"/><path class="cls-3" d="M182.46,774.17V853H227v16.15H164.44v-95h18m12-12h-42v119H239V841H194.46V762.17Z"/><path class="cls-2" d="M279.78,876c-19.21,0-31.62-3.39-37.92-10.36s-9.14-19.9-9.14-40.94c0-24.69,2.83-39.49,8.89-46.57,6.3-7.36,19.36-10.8,41.09-10.8,19.27,0,31.65,3.49,37.87,10.67,6.09,7,8.92,20.49,8.92,42.37,0,23.82-2.86,38.16-9,45.11C314.19,872.65,301.25,876,279.78,876Zm-14.63-29.57c.54.36,3.84,2.12,16.58,2.12,12.07,0,14.88-1.92,15.26-2.23.31-.59,2.19-4.93,2.19-25,0-18.52-1.47-23.43-2-24.57-.71-.43-4.12-2-15.9-2-12.12,0-15.56,1.66-16.26,2.1-.51,1.25-2,6.83-2,28.86C263,841.74,264.74,845.71,265.15,846.43Z"/><path class="cls-3" d="M282.7,773.33q25.91,0,33.34,8.6t7.45,38.44q0,32.65-7.49,41.14T279.78,870q-25.89,0-33.47-8.38t-7.59-36.92q0-34,7.45-42.67t36.53-8.7m-1,81.22q16.77,0,20.11-4.7t3.34-28.5q0-23.86-3.16-28.22t-20.71-4.35q-18.17,0-21.22,4.67T257,825.74q0,20.46,3.59,24.64t21.12,4.17m1-93.22c-23.62,0-38.12,4.1-45.65,12.9-7.14,8.34-10.33,23.91-10.33,50.47,0,22.61,3.4,36.9,10.69,45C245,878.08,258.48,882,279.78,882c23.32,0,37.69-4,45.23-12.57,7.24-8.21,10.48-23.34,10.48-49.06,0-23.41-3.3-38.12-10.38-46.3-7.53-8.69-21-12.74-42.41-12.74Zm-12.56,40.21a62.88,62.88,0,0,1,11.17-.76,63.73,63.73,0,0,1,10.87.71c.45,2.85,1,8.64,1,19.86,0,11.9-.66,17.74-1.15,20.43a52.6,52.6,0,0,1-10.3.77,62.49,62.49,0,0,1-11.73-.82c-.43-2.33-1-7-1-16,0-14.07.64-21,1.12-24.2Z"/><path class="cls-2" d="M380.3,876c-21.3,0-33.85-3.73-39.49-11.73-3.25-4.61-7.57-15.07-7.57-52.59,0-17.7,3.57-29.32,10.89-35.52,7-5.94,20.3-8.83,40.56-8.83,15.21,0,25.4,2.49,31.14,7.62,5.92,5.28,8.81,14.63,8.82,28.56l.27,8.26H394.63v-8.44c0-5.29-1-6.89-1.14-7.15-.37-.2-3-1.4-12.42-1.4-11.7,0-14.93,1.6-15.53,2-.41.81-2,4.89-2,20.5,0,22.9,1.66,28.11,2.12,29.11.41.32,3.26,2.19,14.5,2.19s13.76-1.53,14-1.71,1.41-2.13,1.42-7.23l-.33-10.34h30.29v9.27c0,15.28-3.1,25.2-9.48,30.33C410,873.73,398.65,876,380.3,876Z"/><path class="cls-3" d="M384.69,773.33q20.32,0,27.14,6.09t6.82,24.19l.07,2.16H400.63v-2.44q0-9.33-3.52-11.94t-16-2.61q-16.77,0-20.15,4.11t-3.37,24.36q0,27.27,3,32.29t19.59,5q13.43,0,17.43-2.78t4-12.25l-.14-4.25h18.1v3.27q0,19.85-7.24,25.65t-32,5.81q-28.11,0-34.58-9.18t-6.48-49.14q0-23.52,8.77-30.94t36.68-7.41m0-12c-22,0-36.15,3.26-44.42,10.24-8.77,7.42-13,20.54-13,40.11,0,21.64,1,45.22,8.67,56.05,6.86,9.73,21,14.27,44.39,14.27,20.06,0,32.25-2.61,39.53-8.45,7.89-6.34,11.73-17.79,11.73-35V823.27H389.07l.4,12.39.13,4a21.59,21.59,0,0,1-.12,2.28,58,58,0,0,1-9.31.57,49,49,0,0,1-9.43-.7c-.5-3.09-1.19-10-1.19-24.6a98.47,98.47,0,0,1,.9-15.76,60.35,60.35,0,0,1,10.62-.71,61.75,61.75,0,0,1,7.48.37c.05.59.08,1.31.08,2.18v14.44h42.49l-.4-12.39-.07-2c0-15.69-3.57-26.46-10.82-32.94-7-6.23-18.15-9.14-35.14-9.14Z"/><polygon class="cls-2" points="496.7 875.17 462.06 834.22 462.06 875.17 432.03 875.17 432.03 768.17 462.06 768.17 462.06 806.42 493.3 768.17 531.35 768.17 488.08 820.23 535.74 875.17 496.7 875.17"/><path class="cls-3" d="M518.56,774.17l-38.35,46.14,42.38,48.86H499.48L464.69,828h-8.63v41.13H438v-95h18v38.69h8.49l31.59-38.69h22.42m25.57-12H490.45l-3.6,4.41-18.79,23V762.17H426v119h42V850.6l22.26,26.32,3.6,4.25h55L531.65,861.3,496,820.14l31.83-38.3,16.35-19.67Z"/><polygon class="cls-2" points="550.86 875.17 550.86 796.31 523.43 796.31 523.43 768.17 609.28 768.17 609.28 796.31 580.88 796.31 580.88 875.17 550.86 875.17"/><path class="cls-3" d="M603.28,774.17v16.14h-28.4v78.86h-18V790.31H529.43V774.17h73.85m12-12H517.43v40.14h27.43v78.86h42V802.31h28.4V762.17Z"/><polygon class="cls-2" points="611.64 875.17 611.64 768.17 688.65 768.17 688.65 795.34 641.67 795.34 641.67 807.83 686.21 807.83 686.21 833.13 641.67 833.13 641.67 847.99 689.07 847.99 689.07 875.17 611.64 875.17"/><path class="cls-3" d="M682.65,774.17v15.16h-47v24.5h44.54v13.3H635.67V854h47.4v15.18H617.64v-95h65m12-12h-89v119h89.43V842h-47.4v-2.86h44.54v-37.3H647.67v-.5h47V762.17Z"/><path class="cls-2" d="M790.67,875.17V826.25l-19.06,48.92H747l-19.35-48.82v48.82h-30v-107h39.49L755.57,816c.94,2.48,2.08,5.7,3.46,9.77,1.26-3.88,2.39-7.12,3.38-9.65l18.14-47.94H820.7v107Z"/><path class="cls-3" d="M814.7,774.17v95h-18V817.38q0-6.2.35-14l.35-7.1.34-7h-.55L795,795.81l-2.09,6.61c-1.94,5.94-3.46,10.32-4.53,13.16l-20.87,53.59H751.08L730,816q-1.74-4.38-4.6-13.15l-2.15-6.61-2.16-6.54h-.56l.35,6.88.35,7q.42,8.07.42,13.84v51.79h-18v-95H733l17,44q1.74,4.59,4.59,13.16l2.09,6.61,2.16,6.54h.63l2-6.54,2.09-6.54q2.58-8.28,4.46-13.09l16.7-44.12h30m12-12H776.41l-2.94,7.75L759,808.19l-14.8-38.34-3-7.68h-49.6v119h42V857.76l6.28,15.83,3,7.58h32.78l3-7.65,6-15.34v23h42v-119Z"/><path class="cls-2" d="M832.53,875.17v-107h49c14.65,0,24.54,2.77,30.24,8.47s8.47,15.57,8.47,30.17S917.57,831,912,836.43s-15.33,8-30.08,8l-4.09.06H862.55v30.7Zm44.55-57.87c8.51,0,11.11-1.1,11.62-1.37.24-.41,1.24-2.46,1.24-8.78,0-7.23-.8-9.93-1.13-10.72-.74-.31-3.26-1.1-9.92-1.1H862.55v22Z"/><path class="cls-3" d="M881.54,774.17q19.28,0,26,6.71t6.72,25.93q0,19.07-6.4,25.33T882,838.41l-4.18.06H856.55v30.7h-18v-95h43m-25,49.13h20.53q12.25,0,15.56-2.82t3.3-13.33q0-12-2.74-14.92c-1.84-1.93-6.6-2.9-14.31-2.9H856.55v34m25-61.13h-55v119h42v-30.7H878l4.09-.06c16.57,0,27.44-3.09,34.18-9.69s10-17.46,10-33.91c0-16.27-3.35-27.53-10.23-34.41s-18.16-10.23-34.48-10.23Zm-13,39.16h10.34c2.1,0,3.67.09,4.82.19.13,1.31.23,3.13.23,5.63a36.1,36.1,0,0,1-.17,3.82,56.52,56.52,0,0,1-6.69.33h-8.53v-10Z"/><path class="cls-2" d="M969.39,876c-19.21,0-31.62-3.39-37.92-10.36s-9.14-19.91-9.14-40.94c0-24.69,2.83-39.49,8.9-46.57,6.3-7.37,19.36-10.8,41.09-10.8,19.26,0,31.65,3.49,37.87,10.67,6.08,7,8.91,20.49,8.91,42.37,0,23.83-2.85,38.16-9,45.11C1003.8,872.65,990.86,876,969.39,876Zm-14.62-29.57c.54.36,3.84,2.12,16.58,2.12,12.06,0,14.88-1.92,15.25-2.23.32-.58,2.2-4.93,2.2-25,0-18.53-1.47-23.44-2-24.57-.7-.43-4.11-2-15.89-2-12.12,0-15.56,1.66-16.27,2.1-.51,1.25-2,6.84-2,28.86C952.64,841.73,954.36,845.71,954.77,846.43Z"/><path class="cls-3" d="M972.32,773.33q25.89,0,33.33,8.6t7.45,38.44q0,32.65-7.48,41.14T969.39,870q-25.89,0-33.47-8.38t-7.59-36.92q0-34,7.45-42.67t36.54-8.7m-1,81.22q16.75,0,20.11-4.7t3.34-28.5q0-23.86-3.17-28.22t-20.7-4.35q-18.18,0-21.23,4.67t-3.06,32.29q0,20.46,3.58,24.64t21.13,4.17m1-93.22c-23.62,0-38.12,4.1-45.65,12.9-7.15,8.34-10.34,23.91-10.34,50.47,0,22.61,3.4,36.89,10.69,45,7.61,8.42,21.08,12.34,42.37,12.34,23.32,0,37.69-4,45.24-12.56,7.24-8.21,10.47-23.35,10.47-49.07,0-23.41-3.3-38.12-10.37-46.3-7.53-8.69-21-12.74-42.41-12.74Zm-12.56,40.21a62.7,62.7,0,0,1,11.17-.76,63.58,63.58,0,0,1,10.86.71c.45,2.85,1,8.64,1,19.86,0,11.9-.67,17.74-1.16,20.43a52.55,52.55,0,0,1-10.29.77,62.4,62.4,0,0,1-11.73-.82c-.44-2.33-1-7-1-16,0-14.07.63-21,1.12-24.2Z"/><path class="cls-4" d="M315.42,829.06A32.43,32.43,0,0,1,283,861.49h0a32.43,32.43,0,0,1-32.43-32.43V815A32.43,32.43,0,0,1,283,782.54h0A32.43,32.43,0,0,1,315.42,815Z"/><path class="cls-2" d="M282.7,773.33q25.91,0,33.34,8.6t7.45,38.44q0,32.65-7.49,41.14T279.78,870q-25.89,0-33.47-8.38t-7.59-36.92q0-34,7.45-42.67T282.7,773.33Zm-1.39,15.45q-18.17,0-21.22,4.67T257,825.74q0,20.46,3.59,24.64t21.12,4.17q16.77,0,20.11-4.7t3.34-28.5q0-23.86-3.16-28.22T281.31,788.78Z"/><path class="cls-5" d="M1003.15,825.65a32.43,32.43,0,0,1-32.43,32.43h0a32.43,32.43,0,0,1-32.43-32.43V811.56a32.43,32.43,0,0,1,32.43-32.43h0a32.43,32.43,0,0,1,32.43,32.43Z"/><path class="cls-2" d="M972.32,773.33q25.89,0,33.33,8.6t7.45,38.44q0,32.65-7.48,41.14T969.39,870q-25.89,0-33.47-8.38t-7.59-36.92q0-34,7.45-42.67T972.32,773.33Zm-1.39,15.45q-18.18,0-21.23,4.67t-3.06,32.29q0,20.46,3.58,24.64t21.13,4.17q16.75,0,20.11-4.7t3.34-28.5q0-23.86-3.17-28.22T970.93,788.78Z"/><line class="cls-1" x1="279.62" y1="225.84" x2="427.1" y2="310.99"/><path class="cls-2" d="M427,334.26A23.06,23.06,0,0,1,415.43,331L268,245.89a22,22,0,0,1-10.58-25.29c2.85-10.62,12-18,22.33-18a23,23,0,0,1,11.57,3.22l147.48,85.15a22,22,0,0,1,10.58,25.3c-2.85,10.61-12,18-22.32,18Z"/><path class="cls-3" d="M279.71,211.57a14.1,14.1,0,0,1,7.07,2l147.48,85.15c13.41,7.74,5.22,26.52-7.25,26.52a14.06,14.06,0,0,1-7.08-2L272.46,238.1c-13.41-7.75-5.22-26.53,7.25-26.53m0-18c-14.37,0-27.12,10.16-31,24.7-3.79,14.14,2,28,14.77,35.42l47.46,27.4,100,57.74A31.83,31.83,0,0,0,427,343.26c14.37,0,27.13-10.16,31-24.7,3.79-14.14-2-28-14.77-35.41l-69.45-40.1-78-45.05a31.82,31.82,0,0,0-16.07-4.43Z"/><path class="cls-2" d="M279.8,690.52a24.08,24.08,0,0,1-11.73-3.07c-51.83-29-104-59.17-154.55-88.39Q95.25,588.49,77,577.93a22,22,0,0,1-10.58-25.29c2.85-10.62,12-18,22.33-18a23,23,0,0,1,11.58,3.22L137,559c46.48,26.89,94.49,54.67,142.11,81.43l67.86-41.78V362.6L211,284.11a22,22,0,0,1-10.59-25.29c2.85-10.61,12-18,22.33-18A23,23,0,0,1,234.31,244l147.47,85.14a23.18,23.18,0,0,1,11.53,20v255c0,10.6-1.83,21.54-15.07,29.69l-86.74,53.4a22.3,22.3,0,0,1-11.7,3.26Z"/><path class="cls-3" d="M222.73,249.8a14.11,14.11,0,0,1,7.08,2L377.28,337a14.26,14.26,0,0,1,7,12.25v255c0,9.78-1.76,16.47-10.79,22l-86.74,53.4a13.24,13.24,0,0,1-7,1.92,15.17,15.17,0,0,1-7.34-1.92c-64-35.81-127.44-72.77-191-109.47-13.41-7.74-5.22-26.52,7.25-26.52a14,14,0,0,1,7.08,2c61.06,35.26,122,70.78,183.48,105.27l-6.82,4.2h14.32l-7.5-4.2,76.65-47.2v7.93q3.51-6.14,7-12.25l-7,4.32V357.4l7,4.06-7-12.26v8.2L215.49,276.32c-13.42-7.75-5.23-26.52,7.24-26.52m0-18c-14.37,0-27.13,10.15-31,24.7-3.79,14.14,2,28,14.78,35.4l62.62,36.16,68.82,39.74V593.65L315.7,607.34,278.87,630c-46.05-25.93-92.42-52.76-137.36-78.75L104.8,530a31.83,31.83,0,0,0-16.08-4.43c-14.37,0-27.12,10.16-31,24.7-3.79,14.14,2,28,14.78,35.41l36.45,21.08c50.56,29.25,102.84,59.49,154.75,88.51a33.14,33.14,0,0,0,16.12,4.21,31.24,31.24,0,0,0,16.42-4.6l40-24.64L383,641.52c17.15-10.56,19.35-25.5,19.35-37.35v-255a32.25,32.25,0,0,0-16-27.83L270.51,254.53l-31.7-18.31a31.92,31.92,0,0,0-16.08-4.42Z"/><line class="cls-1" x1="88.64" y1="483.84" x2="236.11" y2="568.99"/><path class="cls-2" d="M236,592.26A23,23,0,0,1,224.45,589L77,503.89A22,22,0,0,1,66.39,478.6c2.85-10.61,12-18,22.33-18a23,23,0,0,1,11.58,3.22L247.77,549a22,22,0,0,1,10.58,25.28c-2.84,10.61-12,18-22.33,18Z"/><path class="cls-3" d="M88.72,469.58a14.11,14.11,0,0,1,7.08,2l147.47,85.15c13.41,7.74,5.22,26.52-7.25,26.52a14,14,0,0,1-7.07-2L81.47,496.1c-13.41-7.75-5.22-26.52,7.25-26.52m0-18c-14.37,0-27.12,10.15-31,24.69-3.79,14.15,2,28.05,14.77,35.42l126.45,73,21,12.14A31.82,31.82,0,0,0,236,601.26c14.37,0,27.13-10.16,31-24.71,3.78-14.14-2-28-14.79-35.4L104.8,456a31.92,31.92,0,0,0-16.08-4.42Z"/><polyline class="cls-6" points="88.64 338.94 88.63 416.95 236.11 502.1 236.11 424.09"/><path class="cls-2" d="M235.9,525.22a22.9,22.9,0,0,1-11.46-3.08L77,437a23.2,23.2,0,0,1-11.53-20v-78c0-13,10-22.73,23.19-22.73s23.19,9.77,23.19,22.73v64.62l101.1,58.36V424.09c0-13,10-22.73,23.19-22.73s23.19,9.77,23.19,22.73v78A23.28,23.28,0,0,1,235.9,525.22Z"/><path class="cls-3" d="M88.63,325.21c7.1,0,14.19,4.58,14.19,13.73v69.81l-7-4.05q3.52,6.12,7,12.25v-8.2l119.1,68.76q0,12.3,0,24.59l21.36-12.26-21.35-12.33V424.09c0-9.15,7.09-13.73,14.19-13.73s14.19,4.58,14.19,13.73q0,39,0,78a14.32,14.32,0,0,1-14.39,14.12,13.92,13.92,0,0,1-7-1.87Q155.21,471.77,81.47,429.2a14.28,14.28,0,0,1-7-12.25v-78c0-9.15,7.1-13.73,14.19-13.73m0-18A32.91,32.91,0,0,0,67.14,315a31,31,0,0,0-10.7,23.94v78a32.22,32.22,0,0,0,16,27.83l78,45.05,69.45,40.11a32.29,32.29,0,0,0,48.35-27.84q0-39,0-78a31,31,0,0,0-10.7-23.95,33.57,33.57,0,0,0-43,0,31,31,0,0,0-10.7,23.95v22.24l-83.1-48V338.94A31,31,0,0,0,110.12,315a32.87,32.87,0,0,0-21.49-7.79Z"/><path class="cls-2" d="M469,581a22.82,22.82,0,0,1-11.48-3.11l-42.13-24.53A22.06,22.06,0,0,1,404.89,528c2.85-10.58,12-18,22.27-18a22.86,22.86,0,0,1,11.63,3.26l7.25,4.22V414.39L321.48,485.92a23,23,0,0,1-11.54,3.19h0c-10.33,0-19.53-7.42-22.36-18.06A22,22,0,0,1,298.2,445.8l159.39-91.53A23,23,0,0,1,469,351.21a23.28,23.28,0,0,1,23.39,23.12V557.88A23.3,23.3,0,0,1,469,581Z"/><path class="cls-3" d="M469,360.21a14.3,14.3,0,0,1,14.39,14.12V557.88A14.36,14.36,0,0,1,469,572a13.71,13.71,0,0,1-6.95-1.89L419.93,545.6c-13.37-7.79-5.2-26.55,7.23-26.55a14,14,0,0,1,7.1,2L455,533.19v24.69l21.35-12.25L455,533.19V398.85l21.35-12.27L455,374.33v24.52L317,478.11a14.1,14.1,0,0,1-7.06,2c-12.49,0-20.7-18.79-7.26-26.51l159.39-91.52a13.92,13.92,0,0,1,7-1.87m0-18a32,32,0,0,0-15.92,4.26l-109.66,63L293.72,438c-12.79,7.35-18.61,21.23-14.84,35.38,3.89,14.57,16.66,24.74,31.06,24.74a31.93,31.93,0,0,0,16-4.39l66.6-38.25L437,429.94v72.73a30.81,30.81,0,0,0-9.88-1.62c-14.32,0-27.05,10.12-31,24.62-3.82,14.14,1.94,28.07,14.68,35.48L434,574.63l19,11.06A31.92,31.92,0,0,0,469,590a32.31,32.31,0,0,0,32.4-32.14V374.33A32.29,32.29,0,0,0,469,342.21Z"/><polygon class="cls-4" points="73.64 337.94 165.37 284.98 330.84 380.51 239.11 433.48 73.64 337.94"/><path class="cls-3" d="M165.37,295.37l147.47,85.14-73.73,42.58L91.64,337.94l73.73-42.57m0-20.79-9,5.2L82.64,322.35l-27,15.59,27,15.59,147.48,85.14,9,5.2,9-5.2,73.73-42.57,27-15.59-27-15.59L174.37,279.78l-9-5.2Z"/><path class="cls-2" d="M239,446.36a22.93,22.93,0,0,1-11.57-3.23L80,358a23.31,23.31,0,0,1,0-40.08l73.74-42.58a23.35,23.35,0,0,1,23.32,0L324.5,360.46a23.32,23.32,0,0,1,0,40.1l-73.73,42.57a23,23,0,0,1-11.58,3.23Zm.09-50.05,27.35-15.8L165.37,322.15,138,337.94Z"/><path class="cls-3" d="M165.37,281.2a14.39,14.39,0,0,1,7.16,1.91L320,368.26c9.21,5.31,9.21,19.19,0,24.5l-73.73,42.58a14.1,14.1,0,0,1-7.08,2h-.08c12.42-.09,20.54-18.8,7.16-26.53l-7.16-4.13,45.35-26.19,21.22,12.25v-24.5l-21.22,12.25L165.37,311.75l7.16-4.13H158.21l7.16,4.13L120,337.94,98.8,325.69v24.5L120,337.94,239.11,406.7,232,410.83c-13.39,7.73-5.26,26.44,7.16,26.53H239a14.1,14.1,0,0,1-7.07-2L84.47,350.19c-9.2-5.31-9.2-19.18,0-24.5l73.74-42.58a14.36,14.36,0,0,1,7.16-1.91m0-18a32.32,32.32,0,0,0-16.17,4.33l-28.61,16.52L75.47,310.1a32.32,32.32,0,0,0,0,55.68l77.36,44.67L223,450.93A31.82,31.82,0,0,0,239,455.36h.17a31.83,31.83,0,0,0,16.08-4.43l32.27-18.64L329,408.35a32.31,32.31,0,0,0,0-55.68l-54.22-31.31-93.25-53.84a32.35,32.35,0,0,0-16.16-4.32ZM156,337.94l9.35-5.4,83.09,48-9.35,5.4L194.92,360.4,156,337.94Z"/><polyline class="cls-4" points="84.98 341.07 84.98 416.82 236.05 499.5 236.06 423.75"/><path class="cls-2" d="M70.44,341.07v75.75a13.74,13.74,0,0,0,7.2,11.9L228.72,511.4c9.53,5.22,21.87-1.42,21.87-11.9V423.75c0-17.77-29.07-17.77-29.07,0V499.5l21.87-11.9L92.32,404.92q3.59,6,7.2,11.9V341.07c0-17.77-29.08-17.77-29.08,0Z"/><polygon class="cls-4" points="237.06 421.78 85.98 339.1 161.52 297.76 312.59 380.44 237.06 421.78"/><path class="cls-2" d="M244.39,409.88,93.32,327.2V351l75.53-41.34H154.18l151.07,82.67V368.54l-75.53,41.34c-16.23,8.88-1.59,32.7,14.67,23.8q37.77-20.67,75.53-41.35a13.53,13.53,0,0,0,0-23.79L168.85,285.86a15.39,15.39,0,0,0-14.67,0L78.65,327.2a13.55,13.55,0,0,0,0,23.8l151.07,82.68C246,442.58,260.62,418.76,244.39,409.88Z"/><path class="cls-2" d="M346.2,259.78l-191,109.48a14.26,14.26,0,0,0-7,12.25V599.65c0,18.31,28.38,18.31,28.38,0V381.51q-3.51,6.14-7,12.25l191-109.47c15.87-9.1,1.58-33.62-14.32-24.51Z"/><path class="cls-2" d="M215.49,276.32,363,361.46l-7-12.26V611.63q3.51-6.14,7-12.25l-90.5,55.72h14.32c-64-35.81-127.43-72.78-191-109.47-15.88-9.17-30.17,15.36-14.33,24.5,63.55,36.7,126.94,73.66,191,109.47a14.29,14.29,0,0,0,14.32,0l86.74-53.4c9-5.56,10.79-12.25,10.79-22v-255a14.26,14.26,0,0,0-7-12.25L229.81,251.81c-15.88-9.16-30.17,15.36-14.32,24.51Z"/><path class="cls-2" d="M317,478.11l159.39-91.53L455,374.33V557.88l21.35-12.25-42.13-24.54c-15.85-9.23-30.13,15.31-14.33,24.51l42.14,24.53c9.3,5.42,21.35-1.48,21.35-12.25V374.33c0-10.82-12-17.6-21.35-12.25L302.68,453.6c-15.86,9.11-1.57,33.64,14.32,24.51Z"/><path class="cls-2" d="M797.52,704.12a27.77,27.77,0,0,1-14.13-4l-28.18-16.27L588.49,587.57A23.79,23.79,0,0,1,576.67,567V340.08c0-15.43,11.2-21.65,19.38-26.2l2.68-1.51L786.08,204.2a24,24,0,0,1,23.93,0L1007.6,318.29a22.55,22.55,0,0,1,10.85,25.92c-2.92,10.9-12.34,18.51-22.9,18.51h0a23.61,23.61,0,0,1-11.88-3.31L798,252.23,624.24,352.58V553.27L798,653.62l79.86-46.1a23.47,23.47,0,0,1,11.87-3.31c10.56,0,20,7.61,22.9,18.51a22.55,22.55,0,0,1-10.85,25.92l-83.53,48.23C812.7,700.1,805.73,704.12,797.52,704.12Z"/><path class="cls-3" d="M798,210a14.91,14.91,0,0,1,7.46,2l197.6,114.08c14,8.07,5.44,27.64-7.55,27.64a14.66,14.66,0,0,1-7.37-2.1L798,241.84l7.46-4.3H790.59l7.45,4.3L615.24,347.39v-8.54l-7.33,12.77,7.33-4.23V558.46l-7.33-4.22L615.24,567v-8.54L798,664l-7.45,4.3H805.5L798,664l84.36-48.7a14.66,14.66,0,0,1,7.37-2.1c13,0,21.53,19.57,7.55,27.64l-83.53,48.22c-5.68,3.28-10.74,6-16.27,6a19,19,0,0,1-9.63-2.82L759.71,676,593,579.77A14.86,14.86,0,0,1,585.67,567V340.08c0-11.41,9.24-15.11,17.56-19.92L790.59,212a14.9,14.9,0,0,1,7.45-2m0-18a33,33,0,0,0-16.46,4.41l-81,46.74L594.23,304.58,591.68,306c-8.39,4.67-24,13.35-24,34.07V567A32.8,32.8,0,0,0,584,595.37l47.76,27.57,119,68.67,28.19,16.28a37,37,0,0,0,18.62,5.23c10.63,0,19.09-4.89,25.27-8.46l14.11-8.15,69.42-40.07c13-7.51,18.9-21.66,15-36.05-4-14.83-17-25.18-31.59-25.18a32.49,32.49,0,0,0-16.38,4.51L798,643.22,740.48,610,633.24,548.07V357.78l77.1-44.52L798,262.63l113.88,65.74,67.26,38.83a32.34,32.34,0,0,0,16.37,4.52c14.63,0,27.62-10.36,31.59-25.18,3.86-14.4-2-28.55-15-36.05L814.5,196.41A32.94,32.94,0,0,0,798,192Z"/><path class="cls-2" d="M1003.1,326.08,805.5,212a14.88,14.88,0,0,0-14.91,0L603.23,320.16c-8.32,4.81-17.56,8.51-17.56,19.92V567A14.86,14.86,0,0,0,593,579.77L759.71,676l28.18,16.27c9.84,5.68,17.12,1.84,25.9-3.23l83.53-48.22c16.51-9.53,1.62-35.09-14.92-25.54l-91.81,53H805.5L607.91,554.24,615.24,567V338.85l-7.33,12.77L805.5,237.54H790.59L988.18,351.62c16.54,9.55,31.43-16,14.92-25.54Z"/><path class="cls-2" d="M804.41,445.55c-8.3,0-15.9-4.89-22-8.83-1.45-.93-2.82-1.81-4-2.48L690.9,383.71a24,24,0,0,1,0-41.22l101.52-58.62a23.65,23.65,0,0,1,11.91-3.32h.17a23.62,23.62,0,0,1,11.91,3.32l101.52,58.62a24,24,0,0,1,0,41.22l-89.29,51.55c-1,.61-2.26,1.37-3.54,2.19C819.42,441.06,812.35,445.55,804.41,445.55Zm0-51.38,53.81-31.07L804.42,332,750.6,363.1Z"/><path class="cls-3" d="M804.5,289.55a14.71,14.71,0,0,1,7.41,2.11l101.51,58.62c9.64,5.56,9.64,20.07,0,25.64l-53.29,30.77-36,20.78c-5.61,3.23-12.94,9.08-19.73,9.08-7.29,0-15.5-6.64-21.49-10.11L748.7,406.69l-53.3-30.77c-9.63-5.57-9.63-20.08,0-25.64l101.52-58.62a14.74,14.74,0,0,1,7.41-2.11h.09c-13,.09-21.51,19.67-7.5,27.75l7.5,4.33L732.6,363.1l-22.21-12.82v25.64L732.6,363.1l71.82,41.46-7.5,4.32h15l-7.49-4.32,71.81-41.46,22.21,12.82V350.28L876.23,363.1l-71.81-41.47,7.49-4.33c14-8.08,5.5-27.66-7.49-27.75h.08m-.18-18a32.5,32.5,0,0,0-16.4,4.52L686.4,334.69a33,33,0,0,0,0,56.81L700,399.37l39.67,22.9,17.49,10.1L773.92,442c1,.56,2.25,1.39,3.6,2.26,6.73,4.33,15.94,10.26,26.89,10.26,10.56,0,19.21-5.49,25.52-9.51,1.19-.76,2.32-1.47,3.2-2l14.42-8.32,21.58-12.46,28.35-16.37,24.95-14.4a33,33,0,0,0,0-56.82l-41.91-24.2-59.61-34.41a32.42,32.42,0,0,0-16.41-4.53h-.18ZM768.6,363.1l28.65-16.54,7.16-4.14,35.82,20.68-35.81,20.68-35.31-20.39-.51-.29Z"/><polygon class="cls-4" points="804.42 421.62 702.89 363.01 804.42 304.4 905.93 363.01 804.42 421.62"/><path class="cls-2" d="M796.92,317.3l101.52,58.62V350.28l-101.52,58.6h15l-101.52-58.6v25.64L811.91,317.3c16.57-9.56,1.63-35.23-15-25.64L695.4,350.28c-9.63,5.56-9.63,20.07,0,25.64l53.3,30.77,34.22,19.75c6,3.47,14.2,10.11,21.49,10.11,6.79,0,14.12-5.85,19.73-9.08l36-20.78,53.3-30.77c9.63-5.57,9.63-20.08,0-25.64L811.91,291.66C795.3,282.07,780.34,307.74,796.92,317.3Z"/></svg>